<svg xmlns="http://www.w3.org/2000/svg" viewBox="0 0 186 56"><path d="M0.5 0h.01M1.5 0h.01M2.5 0h.01M3.5 0h.01M4.5 0h.01M5.5 0h.01M6.5 0h.01M7.5 0h.01M8.5 0h.01M9.5 0h.01M10.5 0h.01M16.5 0h.01M17.5 0h.01M18.5 0h.01M22.5 0h.01M24.5 0h.01M25.5 0h.01M26.5 0h.01M27.5 0h.01M28.5 0h.01M30.5 0h.01M31.5 0h.01M32.5 0h.01M36.5 0h.01M38.5 0h.01M39.5 0h.01M40.5 0h.01M41.5 0h.01M42.5 0h.01M52.5 0h.01M53.5 0h.01M54.5 0h.01M55.5 0h.01M56.5 0h.01M57.5 0h.01M58.5 0h.01M59.5 0h.01M60.5 0h.01M61.5 0h.01M62.5 0h.01M63.5 0h.01M64.5 0h.01M96.5 0h.01M97.5 0h.01M98.5 0h.01M99.5 0h.01M100.5 0h.01M101.5 0h.01M102.5 0h.01M103.5 0h.01M104.5 0h.01M105.5 0h.01M106.5 0h.01M107.5 0h.01M108.5 0h.01M109.5 0h.01M110.5 0h.01M111.5 0h.01M112.5 0h.01M115.5 0h.01M116.5 0h.01M119.5 0h.01M120.5 0h.01M121.5 0h.01M122.5 0h.01M123.5 0h.01M124.5 0h.01M125.5 0h.01M126.5 0h.01M127.5 0h.01M128.5 0h.01M129.5 0h.01M130.5 0h.01M131.5 0h.01M132.5 0h.01M133.5 0h.01M134.5 0h.01M135.5 0h.01M136.5 0h.01M137.5 0h.01M138.5 0h.01M139.5 0h.01M140.5 0h.01M141.5 0h.01M142.5 0h.01M143.5 0h.01M144.5 0h.01M145.5 0h.01M146.5 0h.01M147.5 0h.01M148.5 0h.01M149.5 0h.01M150.5 0h.01M151.5 0h.01M152.5 0h.01M153.5 0h.01M154.5 0h.01M155.5 0h.01M156.5 0h.01M157.5 0h.01M158.5 0h.01M159.5 0h.01M160.5 0h.01M161.5 0h.01M162.5 0h.01M163.5 0h.01M164.5 0h.01M165.5 0h.01M166.5 0h.01M167.5 0h.01M168.5 0h.01M169.5 0h.01M170.5 0h.01M171.5 0h.01M172.5 0h.01M173.5 0h.01M174.5 0h.01M175.5 0h.01M176.5 0h.01M177.5 0h.01M178.5 0h.01M179.5 0h.01M180.5 0h.01M181.5 0h.01M182.5 0h.01M183.5 0h.01M184.5 0h.01M185.5 0h.01M0 0.9h.01M1 0.9h.01M2 0.9h.01M3 0.9h.01M4 0.9h.01M5 0.9h.01M6 0.9h.01M7 0.9h.01M8 0.9h.01M9 0.9h.01M10 0.9h.01M11 0.9h.01M12 0.9h.01M13 0.9h.01M14 0.9h.01M15 0.9h.01M16 0.9h.01M17 0.9h.01M18 0.9h.01M19 0.9h.01M20 0.9h.01M21 0.9h.01M22 0.9h.01M23 0.9h.01M24 0.9h.01M25 0.9h.01M26 0.9h.01M27 0.9h.01M28 0.9h.01M30 0.9h.01M31 0.9h.01M32 0.9h.01M33 0.9h.01M36 0.9h.01M37 0.9h.01M39 0.9h.01M40 0.9h.01M41 0.9h.01M42 0.9h.01M43 0.9h.01M44 0.9h.01M52 0.9h.01M53 0.9h.01M54 0.9h.01M55 0.9h.01M56 0.9h.01M57 0.9h.01M58 0.9h.01M59 0.9h.01M60 0.9h.01M61 0.9h.01M62 0.9h.01M63 0.9h.01M64 0.9h.01M96 0.9h.01M97 0.9h.01M98 0.9h.01M99 0.9h.01M100 0.9h.01M101 0.9h.01M102 0.9h.01M103 0.9h.01M104 0.9h.01M105 0.9h.01M106 0.9h.01M107 0.9h.01M108 0.9h.01M109 0.9h.01M110 0.9h.01M111 0.9h.01M112 0.9h.01M113 0.9h.01M116 0.9h.01M118 0.9h.01M119 0.9h.01M120 0.9h.01M121 0.9h.01M122 0.9h.01M123 0.9h.01M124 0.9h.01M125 0.9h.01M126 0.9h.01M127 0.9h.01M128 0.9h.01M129 0.9h.01M130 0.9h.01M131 0.9h.01M132 0.9h.01M133 0.9h.01M134 0.9h.01M136 0.9h.01M137 0.9h.01M138 0.9h.01M139 0.9h.01M140 0.9h.01M141 0.9h.01M142 0.9h.01M143 0.9h.01M144 0.9h.01M145 0.9h.01M146 0.9h.01M147 0.9h.01M148 0.9h.01M149 0.9h.01M150 0.9h.01M151 0.9h.01M152 0.9h.01M153 0.9h.01M154 0.9h.01M155 0.9h.01M156 0.9h.01M157 0.9h.01M158 0.9h.01M159 0.9h.01M160 0.9h.01M161 0.9h.01M162 0.9h.01M163 0.9h.01M164 0.9h.01M165 0.9h.01M166 0.9h.01M167 0.9h.01M168 0.9h.01M169 0.9h.01M170 0.9h.01M171 0.9h.01M172 0.9h.01M173 0.9h.01M174 0.9h.01M175 0.9h.01M176 0.9h.01M177 0.9h.01M178 0.9h.01M179 0.9h.01M180 0.9h.01M181 0.9h.01M182 0.9h.01M183 0.9h.01M184 0.9h.01M185 0.9h.01M0.5 1.7h.01M1.5 1.7h.01M2.5 1.7h.01M3.5 1.7h.01M4.5 1.7h.01M5.5 1.7h.01M6.5 1.7h.01M7.5 1.7h.01M8.5 1.7h.01M9.5 1.7h.01M10.5 1.7h.01M11.5 1.7h.01M12.5 1.7h.01M13.5 1.7h.01M14.5 1.7h.01M15.5 1.7h.01M16.5 1.7h.01M17.5 1.7h.01M18.5 1.7h.01M19.5 1.7h.01M20.5 1.7h.01M21.5 1.7h.01M22.5 1.7h.01M23.5 1.7h.01M24.5 1.7h.01M25.5 1.7h.01M26.5 1.7h.01M27.5 1.7h.01M28.5 1.7h.01M29.5 1.7h.01M30.5 1.7h.01M31.5 1.7h.01M32.5 1.7h.01M39.5 1.7h.01M40.5 1.7h.01M41.5 1.7h.01M42.5 1.7h.01M43.5 1.7h.01M44.5 1.7h.01M51.5 1.7h.01M52.5 1.7h.01M53.5 1.7h.01M54.5 1.7h.01M55.5 1.7h.01M56.5 1.7h.01M57.5 1.7h.01M58.5 1.7h.01M59.5 1.7h.01M60.5 1.7h.01M61.5 1.7h.01M62.5 1.7h.01M63.5 1.7h.01M95.5 1.7h.01M96.5 1.7h.01M97.5 1.7h.01M98.5 1.7h.01M99.5 1.7h.01M100.5 1.7h.01M101.5 1.7h.01M102.5 1.7h.01M103.5 1.7h.01M104.5 1.7h.01M105.5 1.7h.01M106.5 1.7h.01M107.5 1.7h.01M108.5 1.7h.01M109.5 1.7h.01M110.5 1.7h.01M111.5 1.7h.01M112.5 1.7h.01M115.5 1.7h.01M118.5 1.7h.01M119.5 1.7h.01M120.5 1.7h.01M121.5 1.7h.01M122.5 1.7h.01M123.5 1.7h.01M124.5 1.7h.01M125.5 1.7h.01M126.5 1.7h.01M127.5 1.7h.01M128.5 1.7h.01M129.5 1.7h.01M130.5 1.7h.01M131.5 1.7h.01M132.5 1.7h.01M133.5 1.7h.01M135.5 1.7h.01M136.5 1.7h.01M137.5 1.7h.01M138.5 1.7h.01M139.5 1.7h.01M140.5 1.7h.01M141.5 1.7h.01M142.5 1.7h.01M143.5 1.7h.01M144.5 1.7h.01M145.5 1.7h.01M146.5 1.7h.01M147.5 1.7h.01M148.5 1.7h.01M149.5 1.7h.01M150.5 1.7h.01M151.5 1.7h.01M152.5 1.7h.01M153.5 1.7h.01M154.5 1.7h.01M155.5 1.7h.01M156.5 1.7h.01M157.5 1.7h.01M158.5 1.7h.01M159.5 1.7h.01M160.5 1.7h.01M161.5 1.7h.01M162.5 1.7h.01M163.5 1.7h.01M164.5 1.7h.01M165.5 1.7h.01M166.5 1.7h.01M167.5 1.7h.01M168.5 1.7h.01M169.5 1.7h.01M170.5 1.7h.01M171.5 1.7h.01M172.5 1.7h.01M173.5 1.7h.01M174.5 1.7h.01M175.5 1.7h.01M176.5 1.7h.01M177.5 1.7h.01M178.5 1.7h.01M179.5 1.7h.01M180.5 1.7h.01M181.5 1.7h.01M182.5 1.7h.01M183.5 1.7h.01M184.5 1.7h.01M185.5 1.7h.01M0 2.6h.01M1 2.6h.01M2 2.6h.01M3 2.6h.01M4 2.6h.01M5 2.6h.01M6 2.6h.01M7 2.6h.01M8 2.6h.01M9 2.6h.01M10 2.6h.01M11 2.6h.01M12 2.6h.01M13 2.6h.01M14 2.6h.01M15 2.6h.01M16 2.6h.01M17 2.6h.01M18 2.6h.01M19 2.6h.01M20 2.6h.01M21 2.6h.01M22 2.6h.01M23 2.6h.01M24 2.6h.01M25 2.6h.01M26 2.6h.01M27 2.6h.01M28 2.6h.01M29 2.6h.01M30 2.6h.01M31 2.6h.01M39 2.6h.01M40 2.6h.01M41 2.6h.01M42 2.6h.01M43 2.6h.01M44 2.6h.01M45 2.6h.01M52 2.6h.01M53 2.6h.01M54 2.6h.01M55 2.6h.01M56 2.6h.01M57 2.6h.01M58 2.6h.01M59 2.6h.01M60 2.6h.01M61 2.6h.01M62 2.6h.01M63 2.6h.01M76 2.6h.01M96 2.6h.01M97 2.6h.01M98 2.6h.01M99 2.6h.01M100 2.6h.01M101 2.6h.01M102 2.6h.01M103 2.6h.01M104 2.6h.01M105 2.6h.01M106 2.6h.01M107 2.6h.01M108 2.6h.01M110 2.6h.01M111 2.6h.01M112 2.6h.01M114 2.6h.01M116 2.6h.01M117 2.6h.01M118 2.6h.01M119 2.6h.01M120 2.6h.01M121 2.6h.01M122 2.6h.01M123 2.6h.01M124 2.6h.01M125 2.6h.01M126 2.6h.01M127 2.6h.01M128 2.6h.01M129 2.6h.01M130 2.6h.01M131 2.6h.01M132 2.6h.01M133 2.6h.01M135 2.6h.01M136 2.6h.01M137 2.6h.01M138 2.6h.01M139 2.6h.01M140 2.6h.01M141 2.6h.01M142 2.6h.01M143 2.6h.01M144 2.6h.01M145 2.6h.01M146 2.6h.01M147 2.6h.01M148 2.6h.01M149 2.6h.01M150 2.6h.01M151 2.6h.01M152 2.6h.01M153 2.6h.01M154 2.6h.01M155 2.6h.01M156 2.6h.01M157 2.6h.01M158 2.6h.01M159 2.6h.01M160 2.6h.01M161 2.6h.01M162 2.6h.01M163 2.6h.01M164 2.6h.01M165 2.6h.01M166 2.6h.01M167 2.6h.01M168 2.6h.01M169 2.6h.01M170 2.6h.01M171 2.6h.01M172 2.6h.01M173 2.6h.01M174 2.6h.01M175 2.6h.01M176 2.6h.01M177 2.6h.01M178 2.6h.01M179 2.6h.01M180 2.6h.01M181 2.6h.01M182 2.6h.01M183 2.6h.01M184 2.6h.01M185 2.6h.01M0.5 3.5h.01M1.5 3.5h.01M2.5 3.5h.01M3.5 3.5h.01M4.5 3.5h.01M5.5 3.5h.01M6.5 3.5h.01M7.5 3.5h.01M8.5 3.5h.01M9.5 3.5h.01M10.5 3.5h.01M11.5 3.5h.01M12.5 3.5h.01M13.5 3.5h.01M14.5 3.5h.01M15.5 3.5h.01M16.5 3.5h.01M17.5 3.5h.01M18.5 3.5h.01M19.5 3.5h.01M20.5 3.5h.01M21.5 3.5h.01M22.5 3.5h.01M23.5 3.5h.01M24.5 3.5h.01M25.5 3.5h.01M26.5 3.5h.01M27.5 3.5h.01M28.5 3.5h.01M29.5 3.5h.01M38.5 3.5h.01M39.5 3.5h.01M40.5 3.5h.01M41.5 3.5h.01M43.5 3.5h.01M44.5 3.5h.01M45.5 3.5h.01M51.5 3.5h.01M52.5 3.5h.01M53.5 3.5h.01M54.5 3.5h.01M55.5 3.5h.01M56.5 3.5h.01M57.5 3.5h.01M58.5 3.5h.01M59.5 3.5h.01M60.5 3.5h.01M61.5 3.5h.01M71.5 3.5h.01M72.5 3.5h.01M73.5 3.5h.01M74.5 3.5h.01M75.5 3.5h.01M76.5 3.5h.01M95.5 3.5h.01M96.5 3.5h.01M97.5 3.5h.01M98.5 3.5h.01M99.5 3.5h.01M100.5 3.5h.01M101.5 3.5h.01M102.5 3.5h.01M103.5 3.5h.01M104.5 3.5h.01M105.5 3.5h.01M106.5 3.5h.01M107.5 3.5h.01M108.5 3.5h.01M113.5 3.5h.01M114.5 3.5h.01M115.5 3.5h.01M116.5 3.5h.01M117.5 3.5h.01M118.5 3.5h.01M119.5 3.5h.01M120.5 3.5h.01M121.5 3.5h.01M122.5 3.5h.01M123.5 3.5h.01M124.5 3.5h.01M125.5 3.5h.01M126.5 3.5h.01M127.5 3.5h.01M128.5 3.5h.01M129.5 3.5h.01M130.5 3.5h.01M131.5 3.5h.01M132.5 3.5h.01M133.5 3.5h.01M134.5 3.5h.01M135.5 3.5h.01M136.5 3.5h.01M137.5 3.5h.01M138.5 3.5h.01M139.5 3.5h.01M140.5 3.5h.01M141.5 3.5h.01M142.5 3.5h.01M143.5 3.5h.01M144.5 3.5h.01M145.5 3.5h.01M146.5 3.5h.01M147.5 3.5h.01M148.5 3.5h.01M149.5 3.5h.01M150.5 3.5h.01M151.5 3.5h.01M152.5 3.5h.01M153.5 3.5h.01M154.5 3.5h.01M155.5 3.5h.01M156.5 3.5h.01M157.5 3.5h.01M158.5 3.5h.01M159.5 3.5h.01M160.5 3.5h.01M161.5 3.5h.01M162.5 3.5h.01M163.5 3.5h.01M164.5 3.5h.01M165.5 3.5h.01M166.5 3.5h.01M167.5 3.5h.01M168.5 3.5h.01M169.5 3.5h.01M170.5 3.5h.01M171.5 3.5h.01M172.5 3.5h.01M173.5 3.5h.01M174.5 3.5h.01M175.5 3.5h.01M176.5 3.5h.01M177.5 3.5h.01M178.5 3.5h.01M179.5 3.5h.01M180.5 3.5h.01M181.5 3.5h.01M182.5 3.5h.01M183.5 3.5h.01M184.5 3.5h.01M185.5 3.5h.01M0 4.3h.01M1 4.3h.01M2 4.3h.01M3 4.3h.01M4 4.3h.01M5 4.3h.01M6 4.3h.01M7 4.3h.01M8 4.3h.01M9 4.3h.01M10 4.3h.01M11 4.3h.01M12 4.3h.01M13 4.3h.01M14 4.3h.01M15 4.3h.01M16 4.3h.01M17 4.3h.01M18 4.3h.01M19 4.3h.01M20 4.3h.01M21 4.3h.01M22 4.3h.01M23 4.3h.01M24 4.3h.01M25 4.3h.01M26 4.3h.01M27 4.3h.01M28 4.3h.01M29 4.3h.01M38 4.3h.01M39 4.3h.01M40 4.3h.01M41 4.3h.01M42 4.3h.01M44 4.3h.01M53 4.3h.01M54 4.3h.01M55 4.3h.01M56 4.3h.01M57 4.3h.01M58 4.3h.01M59 4.3h.01M60 4.3h.01M72 4.3h.01M73 4.3h.01M74 4.3h.01M75 4.3h.01M76 4.3h.01M77 4.3h.01M95 4.3h.01M96 4.3h.01M97 4.3h.01M98 4.3h.01M99 4.3h.01M100 4.3h.01M104 4.3h.01M105 4.3h.01M106 4.3h.01M107 4.3h.01M108 4.3h.01M109 4.3h.01M113 4.3h.01M114 4.3h.01M115 4.3h.01M116 4.3h.01M117 4.3h.01M118 4.3h.01M119 4.3h.01M120 4.3h.01M121 4.3h.01M122 4.3h.01M123 4.3h.01M124 4.3h.01M125 4.3h.01M126 4.3h.01M127 4.3h.01M128 4.3h.01M129 4.3h.01M130 4.3h.01M131 4.3h.01M132 4.3h.01M133 4.3h.01M134 4.3h.01M135 4.3h.01M136 4.3h.01M137 4.3h.01M138 4.3h.01M139 4.3h.01M140 4.3h.01M141 4.3h.01M142 4.3h.01M143 4.3h.01M144 4.3h.01M145 4.3h.01M146 4.3h.01M147 4.3h.01M148 4.3h.01M149 4.3h.01M150 4.3h.01M151 4.3h.01M152 4.3h.01M153 4.3h.01M154 4.3h.01M155 4.3h.01M156 4.3h.01M157 4.3h.01M158 4.3h.01M159 4.3h.01M160 4.3h.01M161 4.3h.01M162 4.3h.01M163 4.3h.01M164 4.3h.01M165 4.3h.01M166 4.3h.01M167 4.3h.01M168 4.3h.01M169 4.3h.01M170 4.3h.01M171 4.3h.01M172 4.3h.01M173 4.3h.01M174 4.3h.01M175 4.3h.01M176 4.3h.01M177 4.3h.01M178 4.3h.01M179 4.3h.01M180 4.3h.01M181 4.3h.01M182 4.3h.01M183 4.3h.01M184 4.3h.01M185 4.3h.01M0.5 5.2h.01M1.5 5.2h.01M2.5 5.2h.01M3.5 5.2h.01M4.5 5.2h.01M5.5 5.2h.01M6.5 5.2h.01M7.5 5.2h.01M8.5 5.2h.01M9.5 5.2h.01M10.5 5.2h.01M11.5 5.2h.01M12.5 5.2h.01M13.5 5.2h.01M14.5 5.2h.01M15.5 5.2h.01M16.5 5.2h.01M17.5 5.2h.01M18.5 5.2h.01M19.5 5.2h.01M20.5 5.2h.01M21.5 5.2h.01M22.5 5.2h.01M23.5 5.2h.01M24.5 5.2h.01M25.5 5.2h.01M26.5 5.2h.01M27.5 5.2h.01M28.5 5.2h.01M30.5 5.2h.01M31.5 5.2h.01M35.5 5.2h.01M36.5 5.2h.01M37.5 5.2h.01M38.5 5.2h.01M39.5 5.2h.01M40.5 5.2h.01M41.5 5.2h.01M42.5 5.2h.01M52.5 5.2h.01M53.5 5.2h.01M54.5 5.2h.01M55.5 5.2h.01M56.5 5.2h.01M57.5 5.2h.01M58.5 5.2h.01M59.5 5.2h.01M71.5 5.2h.01M72.5 5.2h.01M73.5 5.2h.01M74.5 5.2h.01M75.5 5.2h.01M76.5 5.2h.01M94.5 5.2h.01M95.5 5.2h.01M96.5 5.2h.01M97.5 5.2h.01M98.5 5.2h.01M99.5 5.2h.01M103.5 5.2h.01M104.5 5.2h.01M105.5 5.2h.01M106.5 5.2h.01M107.5 5.2h.01M108.5 5.2h.01M110.5 5.2h.01M111.5 5.2h.01M113.5 5.2h.01M114.5 5.2h.01M115.5 5.2h.01M116.5 5.2h.01M117.5 5.2h.01M118.5 5.2h.01M119.5 5.2h.01M120.5 5.2h.01M121.5 5.2h.01M122.5 5.2h.01M123.5 5.2h.01M124.5 5.2h.01M125.5 5.2h.01M126.5 5.2h.01M127.5 5.2h.01M128.5 5.2h.01M129.5 5.2h.01M130.5 5.2h.01M131.5 5.2h.01M132.5 5.2h.01M133.5 5.2h.01M134.5 5.2h.01M135.5 5.2h.01M136.5 5.2h.01M137.5 5.2h.01M138.5 5.2h.01M139.5 5.2h.01M140.5 5.2h.01M141.5 5.2h.01M142.5 5.2h.01M143.5 5.2h.01M144.5 5.2h.01M145.5 5.2h.01M146.5 5.2h.01M147.5 5.2h.01M148.5 5.2h.01M149.5 5.2h.01M150.5 5.2h.01M151.5 5.2h.01M152.5 5.2h.01M153.5 5.2h.01M154.5 5.2h.01M155.5 5.2h.01M156.5 5.2h.01M157.5 5.2h.01M158.5 5.2h.01M159.5 5.2h.01M160.5 5.2h.01M161.5 5.2h.01M162.5 5.2h.01M163.5 5.2h.01M164.5 5.2h.01M165.5 5.2h.01M166.5 5.2h.01M167.5 5.2h.01M168.5 5.2h.01M169.5 5.2h.01M170.5 5.2h.01M171.5 5.2h.01M172.5 5.2h.01M173.5 5.2h.01M174.5 5.2h.01M175.5 5.2h.01M176.5 5.2h.01M177.5 5.2h.01M178.5 5.2h.01M179.5 5.2h.01M180.5 5.2h.01M181.5 5.2h.01M182.5 5.2h.01M183.5 5.2h.01M184.5 5.2h.01M185.5 5.2h.01M0 6.1h.01M1 6.1h.01M2 6.1h.01M3 6.1h.01M4 6.1h.01M5 6.1h.01M6 6.1h.01M7 6.1h.01M8 6.1h.01M9 6.1h.01M10 6.1h.01M11 6.1h.01M12 6.1h.01M13 6.1h.01M14 6.1h.01M15 6.1h.01M16 6.1h.01M17 6.1h.01M18 6.1h.01M19 6.1h.01M20 6.1h.01M21 6.1h.01M22 6.1h.01M23 6.1h.01M24 6.1h.01M25 6.1h.01M26 6.1h.01M27 6.1h.01M28 6.1h.01M30 6.1h.01M31 6.1h.01M32 6.1h.01M33 6.1h.01M39 6.1h.01M40 6.1h.01M41 6.1h.01M42 6.1h.01M43 6.1h.01M53 6.1h.01M54 6.1h.01M55 6.1h.01M56 6.1h.01M57 6.1h.01M58 6.1h.01M59 6.1h.01M72 6.1h.01M73 6.1h.01M74 6.1h.01M75 6.1h.01M76 6.1h.01M94 6.1h.01M95 6.1h.01M96 6.1h.01M97 6.1h.01M98 6.1h.01M99 6.1h.01M100 6.1h.01M102 6.1h.01M103 6.1h.01M104 6.1h.01M105 6.1h.01M106 6.1h.01M107 6.1h.01M108 6.1h.01M109 6.1h.01M111 6.1h.01M112 6.1h.01M113 6.1h.01M114 6.1h.01M115 6.1h.01M116 6.1h.01M117 6.1h.01M118 6.1h.01M119 6.1h.01M120 6.1h.01M121 6.1h.01M122 6.1h.01M123 6.1h.01M124 6.1h.01M125 6.1h.01M126 6.1h.01M127 6.1h.01M128 6.1h.01M129 6.1h.01M130 6.1h.01M131 6.1h.01M132 6.1h.01M133 6.1h.01M134 6.1h.01M135 6.1h.01M136 6.1h.01M137 6.1h.01M138 6.1h.01M139 6.1h.01M140 6.1h.01M141 6.1h.01M142 6.1h.01M143 6.1h.01M144 6.1h.01M145 6.1h.01M146 6.1h.01M147 6.1h.01M148 6.1h.01M149 6.1h.01M150 6.1h.01M151 6.1h.01M152 6.1h.01M153 6.1h.01M154 6.1h.01M155 6.1h.01M156 6.1h.01M157 6.1h.01M158 6.1h.01M159 6.1h.01M160 6.1h.01M161 6.1h.01M162 6.1h.01M163 6.1h.01M164 6.1h.01M165 6.1h.01M166 6.1h.01M167 6.1h.01M168 6.1h.01M169 6.1h.01M170 6.1h.01M171 6.1h.01M172 6.1h.01M173 6.1h.01M174 6.1h.01M175 6.1h.01M176 6.1h.01M177 6.1h.01M178 6.1h.01M179 6.1h.01M180 6.1h.01M181 6.1h.01M182 6.1h.01M183 6.1h.01M184 6.1h.01M185 6.1h.01M0.5 6.9h.01M1.5 6.9h.01M2.5 6.9h.01M3.5 6.9h.01M4.5 6.9h.01M5.5 6.9h.01M6.5 6.9h.01M7.5 6.9h.01M8.5 6.9h.01M9.5 6.9h.01M10.5 6.9h.01M11.5 6.9h.01M12.5 6.9h.01M13.5 6.9h.01M14.5 6.9h.01M15.5 6.9h.01M16.5 6.9h.01M17.5 6.9h.01M18.5 6.9h.01M19.5 6.9h.01M20.5 6.9h.01M21.5 6.9h.01M22.5 6.9h.01M23.5 6.9h.01M24.5 6.9h.01M25.5 6.9h.01M26.5 6.9h.01M29.5 6.9h.01M30.5 6.9h.01M31.5 6.9h.01M32.5 6.9h.01M33.5 6.9h.01M39.5 6.9h.01M40.5 6.9h.01M42.5 6.9h.01M43.5 6.9h.01M53.5 6.9h.01M54.5 6.9h.01M55.5 6.9h.01M56.5 6.9h.01M57.5 6.9h.01M58.5 6.9h.01M59.5 6.9h.01M73.5 6.9h.01M74.5 6.9h.01M92.5 6.9h.01M93.5 6.9h.01M94.5 6.9h.01M95.5 6.9h.01M96.5 6.9h.01M97.5 6.9h.01M98.5 6.9h.01M101.5 6.9h.01M102.5 6.9h.01M103.5 6.9h.01M104.5 6.9h.01M105.5 6.9h.01M106.5 6.9h.01M107.5 6.9h.01M108.5 6.9h.01M109.5 6.9h.01M110.5 6.9h.01M111.5 6.9h.01M112.5 6.9h.01M113.5 6.9h.01M114.5 6.9h.01M115.5 6.9h.01M116.5 6.9h.01M117.5 6.9h.01M118.5 6.9h.01M119.5 6.9h.01M120.5 6.9h.01M121.5 6.9h.01M122.5 6.9h.01M123.5 6.9h.01M124.5 6.9h.01M125.5 6.9h.01M126.5 6.9h.01M127.5 6.9h.01M128.5 6.9h.01M129.5 6.9h.01M130.5 6.9h.01M131.5 6.9h.01M132.5 6.9h.01M133.5 6.9h.01M134.5 6.9h.01M135.5 6.9h.01M136.5 6.9h.01M137.5 6.9h.01M138.5 6.9h.01M139.5 6.9h.01M140.5 6.9h.01M141.5 6.9h.01M142.5 6.9h.01M143.5 6.9h.01M144.5 6.9h.01M145.5 6.9h.01M146.5 6.9h.01M147.5 6.9h.01M148.5 6.9h.01M149.5 6.9h.01M150.5 6.9h.01M151.5 6.9h.01M152.5 6.9h.01M153.5 6.9h.01M154.5 6.9h.01M155.5 6.9h.01M156.5 6.9h.01M157.5 6.9h.01M158.5 6.9h.01M159.5 6.9h.01M160.5 6.9h.01M161.5 6.9h.01M162.5 6.9h.01M163.5 6.9h.01M164.5 6.9h.01M165.5 6.9h.01M166.5 6.9h.01M167.5 6.9h.01M168.5 6.9h.01M169.5 6.9h.01M170.5 6.9h.01M171.5 6.9h.01M172.5 6.9h.01M173.5 6.9h.01M174.5 6.9h.01M175.5 6.9h.01M176.5 6.9h.01M177.5 6.9h.01M178.5 6.9h.01M179.5 6.9h.01M180.5 6.9h.01M181.5 6.9h.01M182.5 6.9h.01M183.5 6.9h.01M184.5 6.9h.01M185.5 6.9h.01M0 7.8h.01M1 7.8h.01M2 7.8h.01M3 7.8h.01M4 7.8h.01M5 7.8h.01M6 7.8h.01M7 7.8h.01M8 7.8h.01M9 7.8h.01M10 7.8h.01M11 7.8h.01M12 7.8h.01M13 7.8h.01M14 7.8h.01M15 7.8h.01M16 7.8h.01M17 7.8h.01M18 7.8h.01M19 7.8h.01M20 7.8h.01M21 7.8h.01M22 7.8h.01M23 7.8h.01M24 7.8h.01M25 7.8h.01M26 7.8h.01M27 7.8h.01M40 7.8h.01M41 7.8h.01M42 7.8h.01M43 7.8h.01M54 7.8h.01M55 7.8h.01M56 7.8h.01M57 7.8h.01M58 7.8h.01M92 7.8h.01M93 7.8h.01M94 7.8h.01M95 7.8h.01M96 7.8h.01M97 7.8h.01M98 7.8h.01M101 7.8h.01M102 7.8h.01M103 7.8h.01M104 7.8h.01M105 7.8h.01M106 7.8h.01M107 7.8h.01M108 7.8h.01M109 7.8h.01M110 7.8h.01M111 7.8h.01M112 7.8h.01M113 7.8h.01M114 7.8h.01M115 7.8h.01M116 7.8h.01M117 7.8h.01M118 7.8h.01M119 7.8h.01M120 7.8h.01M121 7.8h.01M122 7.8h.01M123 7.8h.01M124 7.8h.01M125 7.8h.01M126 7.8h.01M127 7.8h.01M128 7.8h.01M129 7.8h.01M130 7.8h.01M131 7.8h.01M132 7.8h.01M133 7.8h.01M134 7.8h.01M135 7.8h.01M136 7.8h.01M137 7.8h.01M138 7.8h.01M139 7.8h.01M140 7.8h.01M141 7.8h.01M142 7.8h.01M143 7.8h.01M144 7.8h.01M145 7.8h.01M146 7.8h.01M147 7.8h.01M148 7.8h.01M149 7.8h.01M150 7.8h.01M151 7.8h.01M152 7.8h.01M153 7.8h.01M154 7.8h.01M155 7.8h.01M156 7.8h.01M157 7.8h.01M158 7.8h.01M159 7.8h.01M160 7.8h.01M161 7.8h.01M162 7.8h.01M163 7.8h.01M164 7.8h.01M165 7.8h.01M166 7.8h.01M167 7.8h.01M168 7.8h.01M169 7.8h.01M170 7.8h.01M171 7.8h.01M172 7.8h.01M173 7.8h.01M174 7.8h.01M175 7.8h.01M176 7.8h.01M177 7.8h.01M178 7.8h.01M179 7.8h.01M180 7.8h.01M181 7.8h.01M182 7.8h.01M183 7.8h.01M184 7.8h.01M185 7.8h.01M0.5 8.7h.01M1.5 8.7h.01M2.5 8.7h.01M3.5 8.7h.01M4.5 8.7h.01M5.5 8.7h.01M6.5 8.7h.01M7.5 8.7h.01M8.5 8.7h.01M9.5 8.7h.01M10.5 8.7h.01M11.5 8.7h.01M12.5 8.7h.01M13.5 8.7h.01M14.5 8.7h.01M15.5 8.7h.01M16.5 8.7h.01M17.5 8.7h.01M18.5 8.7h.01M19.5 8.7h.01M20.5 8.7h.01M21.5 8.7h.01M22.5 8.7h.01M23.5 8.7h.01M24.5 8.7h.01M25.5 8.7h.01M31.5 8.7h.01M41.5 8.7h.01M42.5 8.7h.01M54.5 8.7h.01M55.5 8.7h.01M56.5 8.7h.01M57.5 8.7h.01M90.5 8.7h.01M91.5 8.7h.01M92.5 8.7h.01M93.5 8.7h.01M94.5 8.7h.01M95.5 8.7h.01M96.5 8.7h.01M97.5 8.7h.01M100.5 8.7h.01M101.5 8.7h.01M102.5 8.7h.01M103.5 8.7h.01M104.5 8.7h.01M105.5 8.7h.01M106.5 8.7h.01M107.5 8.7h.01M108.5 8.7h.01M109.5 8.7h.01M110.5 8.7h.01M111.5 8.7h.01M112.5 8.7h.01M113.5 8.7h.01M114.5 8.7h.01M115.5 8.7h.01M116.5 8.7h.01M117.5 8.7h.01M118.5 8.7h.01M119.5 8.7h.01M120.5 8.7h.01M121.5 8.7h.01M122.5 8.7h.01M123.5 8.7h.01M124.5 8.7h.01M125.5 8.7h.01M126.5 8.7h.01M127.5 8.7h.01M128.5 8.7h.01M129.5 8.7h.01M130.5 8.7h.01M131.5 8.7h.01M132.5 8.7h.01M133.5 8.7h.01M134.5 8.7h.01M135.5 8.7h.01M136.5 8.7h.01M137.5 8.7h.01M138.5 8.7h.01M139.5 8.7h.01M140.5 8.7h.01M141.5 8.7h.01M142.5 8.7h.01M143.5 8.7h.01M144.5 8.7h.01M145.5 8.7h.01M146.5 8.7h.01M147.5 8.7h.01M148.5 8.7h.01M149.5 8.7h.01M150.5 8.7h.01M151.5 8.7h.01M152.5 8.7h.01M153.5 8.7h.01M154.5 8.7h.01M155.5 8.7h.01M156.5 8.7h.01M157.5 8.7h.01M158.5 8.7h.01M159.5 8.7h.01M160.5 8.7h.01M161.5 8.7h.01M162.5 8.7h.01M163.5 8.7h.01M164.5 8.7h.01M165.5 8.7h.01M166.5 8.7h.01M167.5 8.7h.01M168.5 8.7h.01M169.5 8.7h.01M170.5 8.7h.01M171.5 8.7h.01M172.5 8.7h.01M173.5 8.7h.01M174.5 8.7h.01M175.5 8.7h.01M176.5 8.7h.01M177.5 8.7h.01M178.5 8.7h.01M179.5 8.7h.01M180.5 8.7h.01M181.5 8.7h.01M182.5 8.7h.01M183.5 8.7h.01M184.5 8.7h.01M185.5 8.7h.01M0 9.5h.01M1 9.5h.01M2 9.5h.01M3 9.5h.01M4 9.5h.01M5 9.5h.01M6 9.5h.01M7 9.5h.01M8 9.5h.01M9 9.5h.01M10 9.5h.01M11 9.5h.01M12 9.5h.01M13 9.5h.01M14 9.5h.01M15 9.5h.01M16 9.5h.01M17 9.5h.01M18 9.5h.01M19 9.5h.01M20 9.5h.01M21 9.5h.01M22 9.5h.01M23 9.5h.01M24 9.5h.01M25 9.5h.01M34 9.5h.01M36 9.5h.01M37 9.5h.01M38 9.5h.01M39 9.5h.01M55 9.5h.01M56 9.5h.01M57 9.5h.01M58 9.5h.01M90 9.5h.01M91 9.5h.01M92 9.5h.01M93 9.5h.01M94 9.5h.01M95 9.5h.01M96 9.5h.01M97 9.5h.01M101 9.5h.01M102 9.5h.01M103 9.5h.01M104 9.5h.01M105 9.5h.01M106 9.5h.01M107 9.5h.01M108 9.5h.01M109 9.5h.01M110 9.5h.01M111 9.5h.01M112 9.5h.01M113 9.5h.01M114 9.5h.01M115 9.5h.01M116 9.5h.01M117 9.5h.01M118 9.5h.01M119 9.5h.01M120 9.5h.01M121 9.5h.01M122 9.5h.01M123 9.5h.01M124 9.5h.01M125 9.5h.01M126 9.5h.01M127 9.5h.01M128 9.5h.01M129 9.5h.01M130 9.5h.01M131 9.5h.01M132 9.5h.01M133 9.5h.01M134 9.5h.01M135 9.5h.01M136 9.5h.01M137 9.5h.01M138 9.5h.01M139 9.5h.01M140 9.5h.01M141 9.5h.01M142 9.5h.01M143 9.5h.01M144 9.5h.01M145 9.5h.01M146 9.5h.01M147 9.5h.01M148 9.5h.01M149 9.5h.01M150 9.5h.01M151 9.5h.01M152 9.5h.01M153 9.5h.01M154 9.5h.01M155 9.5h.01M156 9.5h.01M157 9.5h.01M158 9.5h.01M159 9.5h.01M160 9.5h.01M161 9.5h.01M162 9.5h.01M163 9.5h.01M164 9.5h.01M165 9.5h.01M166 9.5h.01M167 9.5h.01M168 9.5h.01M169 9.5h.01M170 9.5h.01M171 9.5h.01M172 9.5h.01M173 9.5h.01M174 9.5h.01M175 9.5h.01M176 9.5h.01M177 9.5h.01M178 9.5h.01M179 9.5h.01M180 9.5h.01M181 9.5h.01M182 9.5h.01M183 9.5h.01M184 9.5h.01M185 9.5h.01M0.5 10.4h.01M1.5 10.4h.01M2.5 10.4h.01M3.5 10.4h.01M4.5 10.4h.01M5.5 10.4h.01M6.5 10.4h.01M7.5 10.4h.01M8.5 10.4h.01M9.5 10.4h.01M10.5 10.4h.01M11.5 10.4h.01M12.5 10.4h.01M13.5 10.4h.01M14.5 10.4h.01M15.5 10.4h.01M16.5 10.4h.01M17.5 10.4h.01M18.5 10.4h.01M19.5 10.4h.01M20.5 10.4h.01M21.5 10.4h.01M22.5 10.4h.01M23.5 10.4h.01M24.5 10.4h.01M35.5 10.4h.01M36.5 10.4h.01M37.5 10.4h.01M38.5 10.4h.01M39.5 10.4h.01M54.5 10.4h.01M55.5 10.4h.01M56.5 10.4h.01M57.5 10.4h.01M90.5 10.4h.01M91.5 10.4h.01M92.5 10.4h.01M93.5 10.4h.01M94.5 10.4h.01M95.5 10.4h.01M96.5 10.4h.01M97.5 10.4h.01M100.5 10.4h.01M101.5 10.4h.01M102.5 10.4h.01M103.5 10.4h.01M104.5 10.4h.01M105.5 10.4h.01M106.5 10.4h.01M107.5 10.4h.01M108.5 10.4h.01M109.5 10.4h.01M110.5 10.4h.01M111.5 10.4h.01M112.5 10.4h.01M113.5 10.4h.01M114.5 10.4h.01M115.5 10.4h.01M116.5 10.4h.01M117.5 10.4h.01M118.5 10.4h.01M119.5 10.4h.01M120.5 10.4h.01M121.5 10.4h.01M122.5 10.4h.01M123.5 10.4h.01M124.5 10.4h.01M125.5 10.4h.01M126.5 10.4h.01M127.5 10.4h.01M128.5 10.4h.01M129.5 10.4h.01M130.5 10.4h.01M131.5 10.4h.01M132.5 10.4h.01M133.5 10.4h.01M134.5 10.4h.01M135.5 10.4h.01M136.5 10.4h.01M137.5 10.4h.01M138.5 10.4h.01M139.5 10.4h.01M140.5 10.4h.01M141.5 10.4h.01M142.5 10.4h.01M143.5 10.4h.01M144.5 10.4h.01M145.5 10.4h.01M146.5 10.4h.01M147.5 10.4h.01M148.5 10.4h.01M149.5 10.4h.01M150.5 10.4h.01M151.5 10.4h.01M152.5 10.4h.01M153.5 10.4h.01M154.5 10.4h.01M155.5 10.4h.01M156.5 10.4h.01M157.5 10.4h.01M158.5 10.4h.01M159.5 10.4h.01M160.5 10.4h.01M161.5 10.4h.01M162.5 10.4h.01M163.5 10.4h.01M164.5 10.4h.01M165.5 10.4h.01M166.5 10.4h.01M167.5 10.4h.01M168.5 10.4h.01M169.5 10.4h.01M170.5 10.4h.01M171.5 10.4h.01M172.5 10.4h.01M173.5 10.4h.01M174.5 10.4h.01M175.5 10.4h.01M176.5 10.4h.01M177.5 10.4h.01M178.5 10.4h.01M179.5 10.4h.01M180.5 10.4h.01M181.5 10.4h.01M182.5 10.4h.01M183.5 10.4h.01M184.5 10.4h.01M185.5 10.4h.01M0 11.3h.01M1 11.3h.01M2 11.3h.01M3 11.3h.01M4 11.3h.01M5 11.3h.01M6 11.3h.01M7 11.3h.01M8 11.3h.01M9 11.3h.01M10 11.3h.01M11 11.3h.01M12 11.3h.01M13 11.3h.01M14 11.3h.01M15 11.3h.01M16 11.3h.01M17 11.3h.01M18 11.3h.01M19 11.3h.01M20 11.3h.01M21 11.3h.01M22 11.3h.01M23 11.3h.01M24 11.3h.01M36 11.3h.01M37 11.3h.01M38 11.3h.01M39 11.3h.01M40 11.3h.01M57 11.3h.01M58 11.3h.01M90 11.3h.01M91 11.3h.01M92 11.3h.01M93 11.3h.01M94 11.3h.01M95 11.3h.01M96 11.3h.01M97 11.3h.01M98 11.3h.01M101 11.3h.01M102 11.3h.01M103 11.3h.01M104 11.3h.01M105 11.3h.01M106 11.3h.01M107 11.3h.01M108 11.3h.01M109 11.3h.01M110 11.3h.01M111 11.3h.01M112 11.3h.01M113 11.3h.01M114 11.3h.01M115 11.3h.01M116 11.3h.01M117 11.3h.01M118 11.3h.01M119 11.3h.01M120 11.3h.01M121 11.3h.01M122 11.3h.01M123 11.3h.01M124 11.3h.01M125 11.3h.01M126 11.3h.01M127 11.3h.01M128 11.3h.01M129 11.3h.01M130 11.3h.01M131 11.3h.01M132 11.3h.01M133 11.3h.01M134 11.3h.01M135 11.3h.01M136 11.3h.01M137 11.3h.01M138 11.3h.01M139 11.3h.01M140 11.3h.01M141 11.3h.01M142 11.3h.01M143 11.3h.01M144 11.3h.01M145 11.3h.01M146 11.3h.01M147 11.3h.01M148 11.3h.01M149 11.3h.01M150 11.3h.01M151 11.3h.01M152 11.3h.01M153 11.3h.01M154 11.3h.01M155 11.3h.01M156 11.3h.01M157 11.3h.01M158 11.3h.01M159 11.3h.01M160 11.3h.01M161 11.3h.01M162 11.3h.01M163 11.3h.01M164 11.3h.01M165 11.3h.01M166 11.3h.01M167 11.3h.01M168 11.3h.01M169 11.3h.01M170 11.3h.01M171 11.3h.01M172 11.3h.01M173 11.3h.01M174 11.3h.01M175 11.3h.01M176 11.3h.01M177 11.3h.01M178 11.3h.01M179 11.3h.01M180 11.3h.01M181 11.3h.01M182 11.3h.01M183 11.3h.01M184 11.3h.01M185 11.3h.01M0.5 12.1h.01M1.5 12.1h.01M2.5 12.1h.01M3.5 12.1h.01M4.5 12.1h.01M5.5 12.1h.01M6.5 12.1h.01M7.5 12.1h.01M8.5 12.1h.01M9.5 12.1h.01M10.5 12.1h.01M11.5 12.1h.01M12.5 12.1h.01M13.5 12.1h.01M14.5 12.1h.01M15.5 12.1h.01M16.5 12.1h.01M17.5 12.1h.01M18.5 12.1h.01M19.5 12.1h.01M20.5 12.1h.01M21.5 12.1h.01M22.5 12.1h.01M23.5 12.1h.01M36.5 12.1h.01M37.5 12.1h.01M38.5 12.1h.01M39.5 12.1h.01M40.5 12.1h.01M90.5 12.1h.01M91.5 12.1h.01M92.5 12.1h.01M93.5 12.1h.01M94.5 12.1h.01M95.5 12.1h.01M96.5 12.1h.01M97.5 12.1h.01M98.5 12.1h.01M101.5 12.1h.01M105.5 12.1h.01M106.5 12.1h.01M107.5 12.1h.01M108.5 12.1h.01M109.5 12.1h.01M110.5 12.1h.01M111.5 12.1h.01M112.5 12.1h.01M113.5 12.1h.01M114.5 12.1h.01M115.5 12.1h.01M116.5 12.1h.01M117.5 12.1h.01M118.5 12.1h.01M119.5 12.1h.01M120.5 12.1h.01M121.5 12.1h.01M122.5 12.1h.01M123.5 12.1h.01M124.5 12.1h.01M125.5 12.1h.01M126.5 12.1h.01M127.5 12.1h.01M128.5 12.1h.01M129.5 12.1h.01M130.5 12.1h.01M131.5 12.1h.01M132.5 12.1h.01M133.5 12.1h.01M134.5 12.1h.01M135.5 12.1h.01M136.5 12.1h.01M137.5 12.1h.01M138.5 12.1h.01M139.5 12.1h.01M140.5 12.1h.01M141.5 12.1h.01M142.5 12.1h.01M143.5 12.1h.01M144.5 12.1h.01M145.5 12.1h.01M146.5 12.1h.01M147.5 12.1h.01M148.5 12.1h.01M149.5 12.1h.01M150.5 12.1h.01M151.5 12.1h.01M152.5 12.1h.01M153.5 12.1h.01M154.5 12.1h.01M155.5 12.1h.01M156.5 12.1h.01M157.5 12.1h.01M158.5 12.1h.01M159.5 12.1h.01M160.5 12.1h.01M161.5 12.1h.01M162.5 12.1h.01M163.5 12.1h.01M164.5 12.1h.01M165.5 12.1h.01M166.5 12.1h.01M167.5 12.1h.01M168.5 12.1h.01M169.5 12.1h.01M170.5 12.1h.01M171.5 12.1h.01M172.5 12.1h.01M173.5 12.1h.01M174.5 12.1h.01M175.5 12.1h.01M176.5 12.1h.01M177.5 12.1h.01M178.5 12.1h.01M179.5 12.1h.01M180.5 12.1h.01M181.5 12.1h.01M182.5 12.1h.01M183.5 12.1h.01M184.5 12.1h.01M185.5 12.1h.01M0 13h.01M1 13h.01M2 13h.01M3 13h.01M4 13h.01M5 13h.01M6 13h.01M7 13h.01M8 13h.01M9 13h.01M10 13h.01M11 13h.01M12 13h.01M13 13h.01M14 13h.01M15 13h.01M16 13h.01M17 13h.01M18 13h.01M19 13h.01M20 13h.01M21 13h.01M22 13h.01M23 13h.01M24 13h.01M36 13h.01M37 13h.01M38 13h.01M39 13h.01M40 13h.01M41 13h.01M44 13h.01M91 13h.01M92 13h.01M94 13h.01M95 13h.01M96 13h.01M97 13h.01M98 13h.01M102 13h.01M103 13h.01M104 13h.01M105 13h.01M106 13h.01M107 13h.01M108 13h.01M109 13h.01M110 13h.01M111 13h.01M112 13h.01M113 13h.01M114 13h.01M115 13h.01M116 13h.01M117 13h.01M118 13h.01M119 13h.01M120 13h.01M121 13h.01M122 13h.01M123 13h.01M124 13h.01M125 13h.01M126 13h.01M127 13h.01M128 13h.01M129 13h.01M130 13h.01M131 13h.01M132 13h.01M133 13h.01M134 13h.01M135 13h.01M136 13h.01M137 13h.01M138 13h.01M139 13h.01M140 13h.01M141 13h.01M142 13h.01M143 13h.01M144 13h.01M145 13h.01M146 13h.01M147 13h.01M148 13h.01M149 13h.01M150 13h.01M151 13h.01M152 13h.01M153 13h.01M154 13h.01M155 13h.01M156 13h.01M157 13h.01M158 13h.01M159 13h.01M160 13h.01M161 13h.01M162 13h.01M163 13h.01M164 13h.01M165 13h.01M166 13h.01M167 13h.01M168 13h.01M169 13h.01M170 13h.01M171 13h.01M172 13h.01M173 13h.01M174 13h.01M175 13h.01M176 13h.01M177 13h.01M178 13h.01M179 13h.01M180 13h.01M181 13h.01M183 13h.01M0.5 13.9h.01M1.5 13.9h.01M2.5 13.9h.01M3.5 13.9h.01M4.5 13.9h.01M5.5 13.9h.01M6.5 13.9h.01M7.5 13.9h.01M8.5 13.9h.01M9.5 13.9h.01M10.5 13.9h.01M11.5 13.9h.01M12.5 13.9h.01M13.5 13.9h.01M14.5 13.9h.01M15.5 13.9h.01M16.5 13.9h.01M17.5 13.9h.01M18.5 13.9h.01M19.5 13.9h.01M20.5 13.9h.01M21.5 13.9h.01M22.5 13.9h.01M23.5 13.9h.01M24.5 13.9h.01M35.5 13.9h.01M36.5 13.9h.01M37.5 13.9h.01M38.5 13.9h.01M39.5 13.9h.01M40.5 13.9h.01M41.5 13.9h.01M43.5 13.9h.01M44.5 13.9h.01M83.5 13.9h.01M90.5 13.9h.01M91.5 13.9h.01M94.5 13.9h.01M95.5 13.9h.01M96.5 13.9h.01M102.5 13.9h.01M103.5 13.9h.01M104.5 13.9h.01M105.5 13.9h.01M106.5 13.9h.01M107.5 13.9h.01M108.5 13.9h.01M109.5 13.9h.01M110.5 13.9h.01M111.5 13.9h.01M112.5 13.9h.01M113.5 13.9h.01M114.5 13.9h.01M115.5 13.9h.01M116.5 13.9h.01M117.5 13.9h.01M118.5 13.9h.01M119.5 13.9h.01M120.5 13.9h.01M121.5 13.9h.01M122.5 13.9h.01M123.5 13.9h.01M124.5 13.9h.01M125.5 13.9h.01M126.5 13.9h.01M127.5 13.9h.01M128.5 13.9h.01M129.5 13.9h.01M130.5 13.9h.01M131.5 13.9h.01M132.5 13.9h.01M133.5 13.9h.01M134.5 13.9h.01M135.5 13.9h.01M136.5 13.9h.01M137.5 13.9h.01M138.5 13.9h.01M139.5 13.9h.01M140.5 13.9h.01M141.5 13.9h.01M142.5 13.9h.01M143.5 13.9h.01M144.5 13.9h.01M145.5 13.9h.01M146.5 13.9h.01M147.5 13.9h.01M148.5 13.9h.01M149.5 13.9h.01M150.5 13.9h.01M151.5 13.9h.01M152.5 13.9h.01M153.5 13.9h.01M154.5 13.9h.01M155.5 13.9h.01M156.5 13.9h.01M157.5 13.9h.01M158.5 13.9h.01M159.5 13.9h.01M160.5 13.9h.01M161.5 13.9h.01M162.5 13.9h.01M163.5 13.9h.01M164.5 13.9h.01M165.5 13.9h.01M166.5 13.9h.01M167.5 13.9h.01M168.5 13.9h.01M169.5 13.9h.01M170.5 13.9h.01M171.5 13.9h.01M172.5 13.9h.01M173.5 13.9h.01M174.5 13.9h.01M175.5 13.9h.01M176.5 13.9h.01M177.5 13.9h.01M178.5 13.9h.01M0 14.7h.01M1 14.7h.01M2 14.7h.01M3 14.7h.01M4 14.7h.01M5 14.7h.01M6 14.7h.01M7 14.7h.01M8 14.7h.01M9 14.7h.01M10 14.7h.01M11 14.7h.01M12 14.7h.01M13 14.7h.01M14 14.7h.01M15 14.7h.01M16 14.7h.01M17 14.7h.01M18 14.7h.01M19 14.7h.01M20 14.7h.01M21 14.7h.01M22 14.7h.01M23 14.7h.01M24 14.7h.01M25 14.7h.01M36 14.7h.01M37 14.7h.01M38 14.7h.01M39 14.7h.01M40 14.7h.01M41 14.7h.01M42 14.7h.01M43 14.7h.01M44 14.7h.01M45 14.7h.01M83 14.7h.01M95 14.7h.01M96 14.7h.01M97 14.7h.01M99 14.7h.01M103 14.7h.01M104 14.7h.01M105 14.7h.01M106 14.7h.01M107 14.7h.01M108 14.7h.01M109 14.7h.01M110 14.7h.01M111 14.7h.01M112 14.7h.01M113 14.7h.01M114 14.7h.01M115 14.7h.01M116 14.7h.01M117 14.7h.01M118 14.7h.01M119 14.7h.01M120 14.7h.01M121 14.7h.01M122 14.7h.01M123 14.7h.01M124 14.7h.01M125 14.7h.01M126 14.7h.01M127 14.7h.01M128 14.7h.01M129 14.7h.01M130 14.7h.01M131 14.7h.01M132 14.7h.01M133 14.7h.01M134 14.7h.01M135 14.7h.01M136 14.7h.01M137 14.7h.01M138 14.7h.01M139 14.7h.01M140 14.7h.01M141 14.7h.01M142 14.7h.01M143 14.7h.01M144 14.7h.01M145 14.7h.01M146 14.7h.01M147 14.7h.01M148 14.7h.01M149 14.7h.01M150 14.7h.01M151 14.7h.01M152 14.7h.01M153 14.7h.01M154 14.7h.01M155 14.7h.01M156 14.7h.01M157 14.7h.01M158 14.7h.01M159 14.7h.01M160 14.7h.01M161 14.7h.01M162 14.7h.01M163 14.7h.01M164 14.7h.01M165 14.7h.01M166 14.7h.01M167 14.7h.01M168 14.7h.01M169 14.7h.01M170 14.7h.01M171 14.7h.01M172 14.7h.01M173 14.7h.01M174 14.7h.01M175 14.7h.01M176 14.7h.01M177 14.7h.01M178 14.7h.01M0.5 15.6h.01M1.5 15.6h.01M2.5 15.6h.01M3.5 15.6h.01M4.5 15.6h.01M5.5 15.6h.01M6.5 15.6h.01M7.5 15.6h.01M8.5 15.6h.01M9.5 15.6h.01M10.5 15.6h.01M11.5 15.6h.01M12.5 15.6h.01M13.5 15.6h.01M14.5 15.6h.01M15.5 15.6h.01M16.5 15.6h.01M17.5 15.6h.01M18.5 15.6h.01M19.5 15.6h.01M20.5 15.6h.01M21.5 15.6h.01M22.5 15.6h.01M23.5 15.6h.01M24.5 15.6h.01M25.5 15.6h.01M26.5 15.6h.01M36.5 15.6h.01M37.5 15.6h.01M38.5 15.6h.01M39.5 15.6h.01M40.5 15.6h.01M41.5 15.6h.01M42.5 15.6h.01M43.5 15.6h.01M44.5 15.6h.01M45.5 15.6h.01M83.5 15.6h.01M84.5 15.6h.01M94.5 15.6h.01M95.5 15.6h.01M96.5 15.6h.01M98.5 15.6h.01M100.5 15.6h.01M101.5 15.6h.01M102.5 15.6h.01M103.5 15.6h.01M104.5 15.6h.01M105.5 15.6h.01M106.5 15.6h.01M107.5 15.6h.01M108.5 15.6h.01M109.5 15.6h.01M110.5 15.6h.01M111.5 15.6h.01M112.5 15.6h.01M113.5 15.6h.01M114.5 15.6h.01M115.5 15.6h.01M116.5 15.6h.01M117.5 15.6h.01M118.5 15.6h.01M119.5 15.6h.01M120.5 15.6h.01M121.5 15.6h.01M122.5 15.6h.01M123.5 15.6h.01M124.5 15.6h.01M125.5 15.6h.01M126.5 15.6h.01M127.5 15.6h.01M128.5 15.6h.01M129.5 15.6h.01M130.5 15.6h.01M131.5 15.6h.01M132.5 15.6h.01M133.5 15.6h.01M134.5 15.6h.01M135.5 15.6h.01M136.5 15.6h.01M137.5 15.6h.01M138.5 15.6h.01M139.5 15.6h.01M140.5 15.6h.01M141.5 15.6h.01M142.5 15.6h.01M143.5 15.6h.01M144.5 15.6h.01M145.5 15.6h.01M146.5 15.6h.01M147.5 15.6h.01M148.5 15.6h.01M149.5 15.6h.01M150.5 15.6h.01M151.5 15.6h.01M152.5 15.6h.01M153.5 15.6h.01M154.5 15.6h.01M155.5 15.6h.01M156.5 15.6h.01M157.5 15.6h.01M158.5 15.6h.01M159.5 15.6h.01M160.5 15.6h.01M161.5 15.6h.01M162.5 15.6h.01M163.5 15.6h.01M164.5 15.6h.01M165.5 15.6h.01M166.5 15.6h.01M167.5 15.6h.01M168.5 15.6h.01M169.5 15.6h.01M170.5 15.6h.01M171.5 15.6h.01M172.5 15.6h.01M173.5 15.6h.01M174.5 15.6h.01M175.5 15.6h.01M176.5 15.6h.01M177.5 15.6h.01M0 16.5h.01M1 16.5h.01M2 16.5h.01M3 16.5h.01M4 16.5h.01M5 16.5h.01M6 16.5h.01M7 16.5h.01M8 16.5h.01M9 16.5h.01M10 16.5h.01M11 16.5h.01M12 16.5h.01M13 16.5h.01M14 16.5h.01M15 16.5h.01M16 16.5h.01M17 16.5h.01M18 16.5h.01M19 16.5h.01M20 16.5h.01M21 16.5h.01M22 16.5h.01M23 16.5h.01M24 16.5h.01M25 16.5h.01M26 16.5h.01M27 16.5h.01M28 16.5h.01M37 16.5h.01M38 16.5h.01M39 16.5h.01M40 16.5h.01M41 16.5h.01M42 16.5h.01M43 16.5h.01M44 16.5h.01M45 16.5h.01M46 16.5h.01M83 16.5h.01M84 16.5h.01M92 16.5h.01M93 16.5h.01M95 16.5h.01M96 16.5h.01M101 16.5h.01M102 16.5h.01M103 16.5h.01M104 16.5h.01M105 16.5h.01M106 16.5h.01M107 16.5h.01M108 16.5h.01M109 16.5h.01M110 16.5h.01M111 16.5h.01M112 16.5h.01M113 16.5h.01M114 16.5h.01M115 16.5h.01M116 16.5h.01M117 16.5h.01M118 16.5h.01M119 16.5h.01M120 16.5h.01M121 16.5h.01M122 16.5h.01M123 16.5h.01M124 16.5h.01M125 16.5h.01M126 16.5h.01M127 16.5h.01M128 16.5h.01M129 16.5h.01M130 16.5h.01M131 16.5h.01M132 16.5h.01M133 16.5h.01M134 16.5h.01M135 16.5h.01M136 16.5h.01M137 16.5h.01M138 16.5h.01M139 16.5h.01M140 16.5h.01M141 16.5h.01M142 16.5h.01M143 16.5h.01M144 16.5h.01M145 16.5h.01M146 16.5h.01M147 16.5h.01M148 16.5h.01M149 16.5h.01M150 16.5h.01M151 16.5h.01M152 16.5h.01M153 16.5h.01M154 16.5h.01M155 16.5h.01M156 16.5h.01M157 16.5h.01M158 16.5h.01M159 16.5h.01M160 16.5h.01M161 16.5h.01M162 16.5h.01M163 16.5h.01M164 16.5h.01M165 16.5h.01M166 16.5h.01M167 16.5h.01M168 16.5h.01M169 16.5h.01M170 16.5h.01M171 16.5h.01M172 16.5h.01M173 16.5h.01M174 16.5h.01M175 16.5h.01M176 16.5h.01M0.5 17.3h.01M1.5 17.3h.01M2.5 17.3h.01M3.5 17.3h.01M4.5 17.3h.01M5.5 17.3h.01M6.5 17.3h.01M7.5 17.3h.01M8.5 17.3h.01M9.5 17.3h.01M10.5 17.3h.01M11.5 17.3h.01M12.5 17.3h.01M13.5 17.3h.01M14.5 17.3h.01M15.5 17.3h.01M16.5 17.3h.01M17.5 17.3h.01M18.5 17.3h.01M19.5 17.3h.01M20.5 17.3h.01M21.5 17.3h.01M22.5 17.3h.01M23.5 17.3h.01M24.5 17.3h.01M25.5 17.3h.01M26.5 17.3h.01M27.5 17.3h.01M28.5 17.3h.01M29.5 17.3h.01M36.5 17.3h.01M37.5 17.3h.01M38.5 17.3h.01M39.5 17.3h.01M40.5 17.3h.01M41.5 17.3h.01M42.5 17.3h.01M43.5 17.3h.01M44.5 17.3h.01M45.5 17.3h.01M46.5 17.3h.01M83.5 17.3h.01M84.5 17.3h.01M92.5 17.3h.01M94.5 17.3h.01M95.5 17.3h.01M100.5 17.3h.01M101.5 17.3h.01M102.5 17.3h.01M103.5 17.3h.01M104.5 17.3h.01M105.5 17.3h.01M106.5 17.3h.01M107.5 17.3h.01M108.5 17.3h.01M109.5 17.3h.01M110.5 17.3h.01M111.5 17.3h.01M112.5 17.3h.01M113.5 17.3h.01M114.5 17.3h.01M115.5 17.3h.01M116.5 17.3h.01M117.5 17.3h.01M118.5 17.3h.01M119.5 17.3h.01M120.5 17.3h.01M121.5 17.3h.01M122.5 17.3h.01M123.5 17.3h.01M124.5 17.3h.01M125.5 17.3h.01M126.5 17.3h.01M127.5 17.3h.01M128.5 17.3h.01M129.5 17.3h.01M130.5 17.3h.01M131.5 17.3h.01M132.5 17.3h.01M133.5 17.3h.01M134.5 17.3h.01M135.5 17.3h.01M136.5 17.3h.01M137.5 17.3h.01M138.5 17.3h.01M139.5 17.3h.01M140.5 17.3h.01M141.5 17.3h.01M142.5 17.3h.01M143.5 17.3h.01M144.5 17.3h.01M145.5 17.3h.01M146.5 17.3h.01M147.5 17.3h.01M148.5 17.3h.01M149.5 17.3h.01M150.5 17.3h.01M151.5 17.3h.01M152.5 17.3h.01M153.5 17.3h.01M154.5 17.3h.01M155.5 17.3h.01M156.5 17.3h.01M157.5 17.3h.01M158.5 17.3h.01M159.5 17.3h.01M160.5 17.3h.01M161.5 17.3h.01M162.5 17.3h.01M163.5 17.3h.01M164.5 17.3h.01M165.5 17.3h.01M166.5 17.3h.01M167.5 17.3h.01M168.5 17.3h.01M169.5 17.3h.01M170.5 17.3h.01M171.5 17.3h.01M172.5 17.3h.01M173.5 17.3h.01M174.5 17.3h.01M175.5 17.3h.01M1 18.2h.01M2 18.2h.01M3 18.2h.01M4 18.2h.01M5 18.2h.01M6 18.2h.01M7 18.2h.01M8 18.2h.01M9 18.2h.01M10 18.2h.01M11 18.2h.01M12 18.2h.01M13 18.2h.01M14 18.2h.01M15 18.2h.01M16 18.2h.01M17 18.2h.01M18 18.2h.01M19 18.2h.01M20 18.2h.01M21 18.2h.01M22 18.2h.01M23 18.2h.01M24 18.2h.01M25 18.2h.01M26 18.2h.01M27 18.2h.01M28 18.2h.01M29 18.2h.01M30 18.2h.01M31 18.2h.01M32 18.2h.01M35 18.2h.01M36 18.2h.01M37 18.2h.01M38 18.2h.01M39 18.2h.01M40 18.2h.01M41 18.2h.01M42 18.2h.01M43 18.2h.01M44 18.2h.01M45 18.2h.01M46 18.2h.01M47 18.2h.01M48 18.2h.01M82 18.2h.01M84 18.2h.01M85 18.2h.01M100 18.2h.01M101 18.2h.01M102 18.2h.01M103 18.2h.01M104 18.2h.01M105 18.2h.01M106 18.2h.01M107 18.2h.01M108 18.2h.01M109 18.2h.01M110 18.2h.01M111 18.2h.01M112 18.2h.01M113 18.2h.01M114 18.2h.01M115 18.2h.01M116 18.2h.01M117 18.2h.01M118 18.2h.01M119 18.2h.01M120 18.2h.01M121 18.2h.01M122 18.2h.01M123 18.2h.01M124 18.2h.01M125 18.2h.01M126 18.2h.01M127 18.2h.01M128 18.2h.01M129 18.2h.01M130 18.2h.01M131 18.2h.01M132 18.2h.01M133 18.2h.01M134 18.2h.01M135 18.2h.01M136 18.2h.01M137 18.2h.01M138 18.2h.01M139 18.2h.01M140 18.2h.01M141 18.2h.01M142 18.2h.01M143 18.2h.01M144 18.2h.01M145 18.2h.01M146 18.2h.01M147 18.2h.01M148 18.2h.01M149 18.2h.01M150 18.2h.01M151 18.2h.01M152 18.2h.01M153 18.2h.01M154 18.2h.01M155 18.2h.01M156 18.2h.01M157 18.2h.01M158 18.2h.01M159 18.2h.01M160 18.2h.01M161 18.2h.01M162 18.2h.01M163 18.2h.01M164 18.2h.01M165 18.2h.01M166 18.2h.01M167 18.2h.01M168 18.2h.01M169 18.2h.01M170 18.2h.01M171 18.2h.01M172 18.2h.01M173 18.2h.01M174 18.2h.01M175 18.2h.01M1.5 19.1h.01M2.5 19.1h.01M3.5 19.1h.01M4.5 19.1h.01M5.5 19.1h.01M6.5 19.1h.01M7.5 19.1h.01M8.5 19.1h.01M9.5 19.1h.01M10.5 19.1h.01M11.5 19.1h.01M12.5 19.1h.01M13.5 19.1h.01M14.5 19.1h.01M15.5 19.1h.01M16.5 19.1h.01M17.5 19.1h.01M18.5 19.1h.01M19.5 19.1h.01M20.5 19.1h.01M21.5 19.1h.01M22.5 19.1h.01M23.5 19.1h.01M24.5 19.1h.01M25.5 19.1h.01M26.5 19.1h.01M27.5 19.1h.01M28.5 19.1h.01M29.5 19.1h.01M30.5 19.1h.01M31.5 19.1h.01M35.5 19.1h.01M36.5 19.1h.01M37.5 19.1h.01M38.5 19.1h.01M39.5 19.1h.01M40.5 19.1h.01M41.5 19.1h.01M42.5 19.1h.01M43.5 19.1h.01M44.5 19.1h.01M45.5 19.1h.01M46.5 19.1h.01M47.5 19.1h.01M48.5 19.1h.01M80.5 19.1h.01M81.5 19.1h.01M82.5 19.1h.01M84.5 19.1h.01M85.5 19.1h.01M92.5 19.1h.01M93.5 19.1h.01M94.5 19.1h.01M96.5 19.1h.01M97.5 19.1h.01M98.5 19.1h.01M99.5 19.1h.01M100.5 19.1h.01M101.5 19.1h.01M102.5 19.1h.01M103.5 19.1h.01M104.5 19.1h.01M105.5 19.1h.01M106.5 19.1h.01M107.5 19.1h.01M108.5 19.1h.01M109.5 19.1h.01M110.5 19.1h.01M111.5 19.1h.01M112.5 19.1h.01M113.5 19.1h.01M114.5 19.1h.01M115.5 19.1h.01M116.5 19.1h.01M117.5 19.1h.01M118.5 19.1h.01M119.5 19.1h.01M120.5 19.1h.01M121.5 19.1h.01M122.5 19.1h.01M123.5 19.1h.01M124.5 19.1h.01M125.5 19.1h.01M126.5 19.1h.01M127.5 19.1h.01M128.5 19.1h.01M129.5 19.1h.01M130.5 19.1h.01M131.5 19.1h.01M132.5 19.1h.01M133.5 19.1h.01M134.5 19.1h.01M135.5 19.1h.01M136.5 19.1h.01M137.5 19.1h.01M138.5 19.1h.01M139.5 19.1h.01M140.5 19.1h.01M141.5 19.1h.01M142.5 19.1h.01M143.5 19.1h.01M144.5 19.1h.01M145.5 19.1h.01M146.5 19.1h.01M147.5 19.1h.01M148.5 19.1h.01M149.5 19.1h.01M150.5 19.1h.01M151.5 19.1h.01M152.5 19.1h.01M153.5 19.1h.01M154.5 19.1h.01M155.5 19.1h.01M156.5 19.1h.01M157.5 19.1h.01M158.5 19.1h.01M159.5 19.1h.01M160.5 19.1h.01M161.5 19.1h.01M162.5 19.1h.01M163.5 19.1h.01M164.5 19.1h.01M165.5 19.1h.01M166.5 19.1h.01M167.5 19.1h.01M168.5 19.1h.01M169.5 19.1h.01M170.5 19.1h.01M171.5 19.1h.01M172.5 19.1h.01M173.5 19.1h.01M174.5 19.1h.01M175.5 19.1h.01M177.5 19.1h.01M0 19.9h.01M2 19.9h.01M3 19.9h.01M4 19.9h.01M5 19.9h.01M6 19.9h.01M7 19.9h.01M8 19.9h.01M9 19.9h.01M10 19.9h.01M11 19.9h.01M12 19.9h.01M13 19.9h.01M14 19.9h.01M15 19.9h.01M16 19.9h.01M17 19.9h.01M18 19.9h.01M19 19.9h.01M20 19.9h.01M21 19.9h.01M22 19.9h.01M23 19.9h.01M24 19.9h.01M25 19.9h.01M26 19.9h.01M27 19.9h.01M28 19.9h.01M29 19.9h.01M30 19.9h.01M31 19.9h.01M32 19.9h.01M35 19.9h.01M36 19.9h.01M37 19.9h.01M38 19.9h.01M39 19.9h.01M40 19.9h.01M41 19.9h.01M42 19.9h.01M43 19.9h.01M44 19.9h.01M45 19.9h.01M46 19.9h.01M47 19.9h.01M48 19.9h.01M49 19.9h.01M81 19.9h.01M82 19.9h.01M84 19.9h.01M85 19.9h.01M86 19.9h.01M91 19.9h.01M92 19.9h.01M93 19.9h.01M94 19.9h.01M95 19.9h.01M96 19.9h.01M97 19.9h.01M98 19.9h.01M99 19.9h.01M100 19.9h.01M101 19.9h.01M102 19.9h.01M103 19.9h.01M104 19.9h.01M105 19.9h.01M106 19.9h.01M107 19.9h.01M108 19.9h.01M109 19.9h.01M110 19.9h.01M111 19.9h.01M112 19.9h.01M113 19.9h.01M114 19.9h.01M115 19.9h.01M116 19.9h.01M117 19.9h.01M118 19.9h.01M119 19.9h.01M120 19.9h.01M121 19.9h.01M122 19.9h.01M123 19.9h.01M124 19.9h.01M125 19.9h.01M126 19.9h.01M127 19.9h.01M128 19.9h.01M129 19.9h.01M130 19.9h.01M131 19.9h.01M132 19.9h.01M133 19.9h.01M134 19.9h.01M135 19.9h.01M136 19.9h.01M137 19.9h.01M138 19.9h.01M139 19.9h.01M140 19.9h.01M141 19.9h.01M142 19.9h.01M143 19.9h.01M144 19.9h.01M145 19.9h.01M146 19.9h.01M147 19.9h.01M148 19.9h.01M149 19.9h.01M150 19.9h.01M151 19.9h.01M152 19.9h.01M153 19.9h.01M154 19.9h.01M155 19.9h.01M156 19.9h.01M157 19.9h.01M158 19.9h.01M159 19.9h.01M160 19.9h.01M161 19.9h.01M162 19.9h.01M163 19.9h.01M164 19.9h.01M165 19.9h.01M166 19.9h.01M167 19.9h.01M168 19.9h.01M169 19.9h.01M170 19.9h.01M171 19.9h.01M172 19.9h.01M173 19.9h.01M174 19.9h.01M175 19.9h.01M176 19.9h.01M177 19.9h.01M178 19.9h.01M180 19.9h.01M2.5 20.8h.01M3.5 20.8h.01M4.5 20.8h.01M5.5 20.8h.01M6.5 20.8h.01M7.5 20.8h.01M8.5 20.8h.01M9.5 20.8h.01M10.5 20.8h.01M11.5 20.8h.01M12.5 20.8h.01M13.5 20.8h.01M14.5 20.8h.01M15.5 20.8h.01M16.5 20.8h.01M17.5 20.8h.01M18.5 20.8h.01M19.5 20.8h.01M20.5 20.8h.01M21.5 20.8h.01M22.5 20.8h.01M23.5 20.8h.01M24.5 20.8h.01M25.5 20.8h.01M26.5 20.8h.01M27.5 20.8h.01M28.5 20.8h.01M29.5 20.8h.01M30.5 20.8h.01M31.5 20.8h.01M32.5 20.8h.01M35.5 20.8h.01M36.5 20.8h.01M37.5 20.8h.01M38.5 20.8h.01M39.5 20.8h.01M40.5 20.8h.01M41.5 20.8h.01M42.5 20.8h.01M43.5 20.8h.01M44.5 20.8h.01M45.5 20.8h.01M46.5 20.8h.01M47.5 20.8h.01M48.5 20.8h.01M49.5 20.8h.01M80.5 20.8h.01M81.5 20.8h.01M83.5 20.8h.01M84.5 20.8h.01M85.5 20.8h.01M86.5 20.8h.01M87.5 20.8h.01M89.5 20.8h.01M90.5 20.8h.01M91.5 20.8h.01M92.5 20.8h.01M93.5 20.8h.01M94.5 20.8h.01M95.5 20.8h.01M96.5 20.8h.01M97.5 20.8h.01M98.5 20.8h.01M99.5 20.8h.01M100.5 20.8h.01M101.5 20.8h.01M102.5 20.8h.01M103.5 20.8h.01M104.5 20.8h.01M105.5 20.8h.01M106.5 20.8h.01M107.5 20.8h.01M108.5 20.8h.01M109.5 20.8h.01M110.5 20.8h.01M111.5 20.8h.01M112.5 20.8h.01M113.5 20.8h.01M114.5 20.8h.01M115.5 20.8h.01M116.5 20.8h.01M117.5 20.8h.01M118.5 20.8h.01M119.5 20.8h.01M120.5 20.8h.01M121.5 20.8h.01M122.5 20.8h.01M123.5 20.8h.01M124.5 20.8h.01M125.5 20.8h.01M126.5 20.8h.01M127.5 20.8h.01M128.5 20.8h.01M129.5 20.8h.01M130.5 20.8h.01M131.5 20.8h.01M132.5 20.8h.01M133.5 20.8h.01M134.5 20.8h.01M135.5 20.8h.01M136.5 20.8h.01M137.5 20.8h.01M138.5 20.8h.01M139.5 20.8h.01M140.5 20.8h.01M141.5 20.8h.01M142.5 20.8h.01M143.5 20.8h.01M144.5 20.8h.01M145.5 20.8h.01M146.5 20.8h.01M147.5 20.8h.01M148.5 20.8h.01M149.5 20.8h.01M150.5 20.8h.01M151.5 20.8h.01M152.5 20.8h.01M153.5 20.8h.01M154.5 20.8h.01M155.5 20.8h.01M156.5 20.8h.01M157.5 20.8h.01M158.5 20.8h.01M159.5 20.8h.01M160.5 20.8h.01M161.5 20.8h.01M162.5 20.8h.01M163.5 20.8h.01M164.5 20.8h.01M165.5 20.8h.01M166.5 20.8h.01M167.5 20.8h.01M168.5 20.8h.01M169.5 20.8h.01M170.5 20.8h.01M171.5 20.8h.01M172.5 20.8h.01M173.5 20.8h.01M174.5 20.8h.01M175.5 20.8h.01M176.5 20.8h.01M177.5 20.8h.01M178.5 20.8h.01M179.5 20.8h.01M3 21.7h.01M4 21.7h.01M5 21.7h.01M6 21.7h.01M7 21.7h.01M8 21.7h.01M9 21.7h.01M10 21.7h.01M11 21.7h.01M12 21.7h.01M13 21.7h.01M14 21.7h.01M15 21.7h.01M16 21.7h.01M17 21.7h.01M18 21.7h.01M19 21.7h.01M20 21.7h.01M21 21.7h.01M22 21.7h.01M23 21.7h.01M24 21.7h.01M25 21.7h.01M26 21.7h.01M27 21.7h.01M28 21.7h.01M29 21.7h.01M30 21.7h.01M31 21.7h.01M32 21.7h.01M33 21.7h.01M35 21.7h.01M36 21.7h.01M37 21.7h.01M38 21.7h.01M39 21.7h.01M40 21.7h.01M41 21.7h.01M42 21.7h.01M43 21.7h.01M44 21.7h.01M45 21.7h.01M46 21.7h.01M47 21.7h.01M48 21.7h.01M49 21.7h.01M81 21.7h.01M84 21.7h.01M85 21.7h.01M86 21.7h.01M87 21.7h.01M90 21.7h.01M91 21.7h.01M92 21.7h.01M93 21.7h.01M94 21.7h.01M95 21.7h.01M96 21.7h.01M97 21.7h.01M98 21.7h.01M99 21.7h.01M100 21.7h.01M101 21.7h.01M102 21.7h.01M103 21.7h.01M104 21.7h.01M105 21.7h.01M106 21.7h.01M107 21.7h.01M108 21.7h.01M109 21.7h.01M110 21.7h.01M111 21.7h.01M112 21.7h.01M113 21.7h.01M114 21.7h.01M115 21.7h.01M116 21.7h.01M117 21.7h.01M118 21.7h.01M119 21.7h.01M120 21.7h.01M121 21.7h.01M122 21.7h.01M123 21.7h.01M124 21.7h.01M125 21.7h.01M126 21.7h.01M127 21.7h.01M128 21.7h.01M129 21.7h.01M130 21.7h.01M131 21.7h.01M132 21.7h.01M133 21.7h.01M134 21.7h.01M135 21.7h.01M136 21.7h.01M137 21.7h.01M138 21.7h.01M139 21.7h.01M140 21.7h.01M141 21.7h.01M142 21.7h.01M143 21.7h.01M144 21.7h.01M145 21.7h.01M146 21.7h.01M147 21.7h.01M148 21.7h.01M149 21.7h.01M150 21.7h.01M151 21.7h.01M152 21.7h.01M153 21.7h.01M154 21.7h.01M155 21.7h.01M156 21.7h.01M157 21.7h.01M158 21.7h.01M159 21.7h.01M160 21.7h.01M161 21.7h.01M162 21.7h.01M163 21.7h.01M164 21.7h.01M165 21.7h.01M166 21.7h.01M167 21.7h.01M168 21.7h.01M169 21.7h.01M170 21.7h.01M171 21.7h.01M172 21.7h.01M173 21.7h.01M174 21.7h.01M175 21.7h.01M176 21.7h.01M177 21.7h.01M178 21.7h.01M180 21.7h.01M3.5 22.5h.01M4.5 22.5h.01M5.5 22.5h.01M6.5 22.5h.01M7.5 22.5h.01M8.5 22.5h.01M9.5 22.5h.01M10.5 22.5h.01M11.5 22.5h.01M12.5 22.5h.01M13.5 22.5h.01M14.5 22.5h.01M15.5 22.5h.01M16.5 22.5h.01M17.5 22.5h.01M18.5 22.5h.01M19.5 22.5h.01M20.5 22.5h.01M21.5 22.5h.01M22.5 22.5h.01M23.5 22.5h.01M24.5 22.5h.01M25.5 22.5h.01M26.5 22.5h.01M27.5 22.5h.01M28.5 22.5h.01M29.5 22.5h.01M30.5 22.5h.01M31.5 22.5h.01M32.5 22.5h.01M33.5 22.5h.01M34.5 22.5h.01M35.5 22.5h.01M36.5 22.5h.01M37.5 22.5h.01M38.5 22.5h.01M39.5 22.5h.01M40.5 22.5h.01M41.5 22.5h.01M42.5 22.5h.01M43.5 22.5h.01M44.5 22.5h.01M45.5 22.5h.01M46.5 22.5h.01M47.5 22.5h.01M49.5 22.5h.01M83.5 22.5h.01M84.5 22.5h.01M85.5 22.5h.01M86.5 22.5h.01M88.5 22.5h.01M89.5 22.5h.01M90.5 22.5h.01M91.5 22.5h.01M92.5 22.5h.01M93.5 22.5h.01M94.5 22.5h.01M95.5 22.5h.01M96.5 22.5h.01M97.5 22.5h.01M98.5 22.5h.01M99.5 22.5h.01M100.5 22.5h.01M101.5 22.5h.01M102.5 22.5h.01M103.5 22.5h.01M104.5 22.5h.01M105.5 22.5h.01M106.5 22.5h.01M107.5 22.5h.01M108.5 22.5h.01M109.5 22.5h.01M110.5 22.5h.01M111.5 22.5h.01M112.5 22.5h.01M113.5 22.5h.01M114.5 22.5h.01M115.5 22.5h.01M116.5 22.5h.01M117.5 22.5h.01M118.5 22.5h.01M119.5 22.5h.01M120.5 22.5h.01M121.5 22.5h.01M122.5 22.5h.01M123.5 22.5h.01M124.5 22.5h.01M125.5 22.5h.01M126.5 22.5h.01M127.5 22.5h.01M128.5 22.5h.01M129.5 22.5h.01M130.5 22.5h.01M131.5 22.5h.01M132.5 22.5h.01M133.5 22.5h.01M134.5 22.5h.01M135.5 22.5h.01M136.5 22.5h.01M137.5 22.5h.01M138.5 22.5h.01M139.5 22.5h.01M140.5 22.5h.01M141.5 22.5h.01M142.5 22.5h.01M143.5 22.5h.01M144.5 22.5h.01M145.5 22.5h.01M146.5 22.5h.01M147.5 22.5h.01M148.5 22.5h.01M149.5 22.5h.01M150.5 22.5h.01M151.5 22.5h.01M152.5 22.5h.01M153.5 22.5h.01M154.5 22.5h.01M155.5 22.5h.01M156.5 22.5h.01M157.5 22.5h.01M158.5 22.5h.01M159.5 22.5h.01M160.5 22.5h.01M161.5 22.5h.01M162.5 22.5h.01M163.5 22.5h.01M164.5 22.5h.01M165.5 22.5h.01M166.5 22.5h.01M167.5 22.5h.01M168.5 22.5h.01M169.5 22.5h.01M170.5 22.5h.01M171.5 22.5h.01M172.5 22.5h.01M173.5 22.5h.01M174.5 22.5h.01M175.5 22.5h.01M176.5 22.5h.01M177.5 22.5h.01M178.5 22.5h.01M3 23.4h.01M4 23.4h.01M5 23.4h.01M6 23.4h.01M7 23.4h.01M8 23.4h.01M9 23.4h.01M10 23.4h.01M11 23.4h.01M12 23.4h.01M13 23.4h.01M14 23.4h.01M15 23.4h.01M16 23.4h.01M17 23.4h.01M18 23.4h.01M19 23.4h.01M20 23.4h.01M21 23.4h.01M22 23.4h.01M23 23.4h.01M24 23.4h.01M25 23.4h.01M26 23.4h.01M27 23.4h.01M28 23.4h.01M29 23.4h.01M30 23.4h.01M31 23.4h.01M32 23.4h.01M33 23.4h.01M34 23.4h.01M35 23.4h.01M36 23.4h.01M37 23.4h.01M38 23.4h.01M39 23.4h.01M40 23.4h.01M41 23.4h.01M42 23.4h.01M46 23.4h.01M49 23.4h.01M83 23.4h.01M88 23.4h.01M89 23.4h.01M90 23.4h.01M91 23.4h.01M92 23.4h.01M93 23.4h.01M94 23.4h.01M95 23.4h.01M96 23.4h.01M97 23.4h.01M98 23.4h.01M99 23.4h.01M100 23.4h.01M101 23.4h.01M102 23.4h.01M103 23.4h.01M104 23.4h.01M105 23.4h.01M106 23.4h.01M107 23.4h.01M108 23.4h.01M109 23.4h.01M110 23.4h.01M111 23.4h.01M112 23.4h.01M113 23.4h.01M114 23.4h.01M115 23.4h.01M116 23.4h.01M117 23.4h.01M118 23.4h.01M119 23.4h.01M120 23.4h.01M121 23.4h.01M122 23.4h.01M123 23.4h.01M124 23.4h.01M125 23.4h.01M126 23.4h.01M127 23.4h.01M128 23.4h.01M129 23.4h.01M130 23.4h.01M131 23.4h.01M132 23.4h.01M133 23.4h.01M134 23.4h.01M135 23.4h.01M136 23.4h.01M137 23.4h.01M138 23.4h.01M139 23.4h.01M140 23.4h.01M141 23.4h.01M142 23.4h.01M143 23.4h.01M144 23.4h.01M145 23.4h.01M146 23.4h.01M147 23.4h.01M148 23.4h.01M149 23.4h.01M150 23.4h.01M151 23.4h.01M152 23.4h.01M153 23.4h.01M154 23.4h.01M155 23.4h.01M156 23.4h.01M157 23.4h.01M158 23.4h.01M159 23.4h.01M160 23.4h.01M161 23.4h.01M162 23.4h.01M163 23.4h.01M164 23.4h.01M165 23.4h.01M166 23.4h.01M167 23.4h.01M168 23.4h.01M169 23.4h.01M170 23.4h.01M171 23.4h.01M172 23.4h.01M173 23.4h.01M174 23.4h.01M175 23.4h.01M176 23.4h.01M177 23.4h.01M178 23.4h.01M180 23.4h.01M4.5 24.2h.01M6.5 24.2h.01M7.5 24.2h.01M8.5 24.2h.01M9.5 24.2h.01M10.5 24.2h.01M11.5 24.2h.01M12.5 24.2h.01M13.5 24.2h.01M14.5 24.2h.01M15.5 24.2h.01M16.5 24.2h.01M17.5 24.2h.01M18.5 24.2h.01M19.5 24.2h.01M20.5 24.2h.01M21.5 24.2h.01M22.5 24.2h.01M23.5 24.2h.01M24.5 24.2h.01M25.5 24.2h.01M26.5 24.2h.01M27.5 24.2h.01M28.5 24.2h.01M29.5 24.2h.01M30.5 24.2h.01M31.5 24.2h.01M32.5 24.2h.01M33.5 24.2h.01M34.5 24.2h.01M35.5 24.2h.01M36.5 24.2h.01M37.5 24.2h.01M38.5 24.2h.01M39.5 24.2h.01M40.5 24.2h.01M41.5 24.2h.01M45.5 24.2h.01M48.5 24.2h.01M49.5 24.2h.01M50.5 24.2h.01M85.5 24.2h.01M86.5 24.2h.01M87.5 24.2h.01M88.5 24.2h.01M89.5 24.2h.01M90.5 24.2h.01M91.5 24.2h.01M92.5 24.2h.01M93.5 24.2h.01M94.5 24.2h.01M95.5 24.2h.01M96.5 24.2h.01M97.5 24.2h.01M98.5 24.2h.01M99.5 24.2h.01M100.5 24.2h.01M101.5 24.2h.01M102.5 24.2h.01M103.5 24.2h.01M104.5 24.2h.01M105.5 24.2h.01M106.5 24.2h.01M107.5 24.2h.01M108.5 24.2h.01M109.5 24.2h.01M110.5 24.2h.01M111.5 24.2h.01M112.5 24.2h.01M113.5 24.2h.01M114.5 24.2h.01M115.5 24.2h.01M116.5 24.2h.01M117.5 24.2h.01M118.5 24.2h.01M119.5 24.2h.01M120.5 24.2h.01M121.5 24.2h.01M122.5 24.2h.01M123.5 24.2h.01M124.5 24.2h.01M125.5 24.2h.01M126.5 24.2h.01M127.5 24.2h.01M128.5 24.2h.01M129.5 24.2h.01M130.5 24.2h.01M131.5 24.2h.01M132.5 24.2h.01M133.5 24.2h.01M134.5 24.2h.01M135.5 24.2h.01M136.5 24.2h.01M137.5 24.2h.01M138.5 24.2h.01M139.5 24.2h.01M140.5 24.2h.01M141.5 24.2h.01M142.5 24.2h.01M143.5 24.2h.01M144.5 24.2h.01M145.5 24.2h.01M146.5 24.2h.01M147.5 24.2h.01M148.5 24.2h.01M149.5 24.2h.01M150.5 24.2h.01M151.5 24.2h.01M152.5 24.2h.01M153.5 24.2h.01M154.5 24.2h.01M155.5 24.2h.01M156.5 24.2h.01M157.5 24.2h.01M158.5 24.2h.01M159.5 24.2h.01M160.5 24.2h.01M161.5 24.2h.01M162.5 24.2h.01M163.5 24.2h.01M164.5 24.2h.01M165.5 24.2h.01M166.5 24.2h.01M167.5 24.2h.01M168.5 24.2h.01M169.5 24.2h.01M170.5 24.2h.01M171.5 24.2h.01M172.5 24.2h.01M173.5 24.2h.01M174.5 24.2h.01M175.5 24.2h.01M176.5 24.2h.01M177.5 24.2h.01M179.5 24.2h.01M180.5 24.2h.01M7 25.1h.01M8 25.1h.01M9 25.1h.01M10 25.1h.01M11 25.1h.01M12 25.1h.01M13 25.1h.01M14 25.1h.01M15 25.1h.01M16 25.1h.01M17 25.1h.01M18 25.1h.01M19 25.1h.01M20 25.1h.01M21 25.1h.01M22 25.1h.01M23 25.1h.01M24 25.1h.01M25 25.1h.01M26 25.1h.01M27 25.1h.01M28 25.1h.01M29 25.1h.01M30 25.1h.01M31 25.1h.01M32 25.1h.01M33 25.1h.01M34 25.1h.01M35 25.1h.01M36 25.1h.01M37 25.1h.01M38 25.1h.01M39 25.1h.01M40 25.1h.01M41 25.1h.01M42 25.1h.01M43 25.1h.01M44 25.1h.01M48 25.1h.01M49 25.1h.01M50 25.1h.01M51 25.1h.01M84 25.1h.01M85 25.1h.01M86 25.1h.01M87 25.1h.01M88 25.1h.01M89 25.1h.01M90 25.1h.01M91 25.1h.01M92 25.1h.01M93 25.1h.01M94 25.1h.01M95 25.1h.01M96 25.1h.01M97 25.1h.01M98 25.1h.01M99 25.1h.01M100 25.1h.01M101 25.1h.01M102 25.1h.01M103 25.1h.01M104 25.1h.01M105 25.1h.01M106 25.1h.01M107 25.1h.01M108 25.1h.01M109 25.1h.01M110 25.1h.01M111 25.1h.01M112 25.1h.01M113 25.1h.01M114 25.1h.01M115 25.1h.01M116 25.1h.01M117 25.1h.01M118 25.1h.01M119 25.1h.01M120 25.1h.01M121 25.1h.01M122 25.1h.01M123 25.1h.01M124 25.1h.01M125 25.1h.01M126 25.1h.01M127 25.1h.01M128 25.1h.01M129 25.1h.01M130 25.1h.01M131 25.1h.01M132 25.1h.01M133 25.1h.01M134 25.1h.01M135 25.1h.01M136 25.1h.01M137 25.1h.01M138 25.1h.01M139 25.1h.01M140 25.1h.01M141 25.1h.01M142 25.1h.01M143 25.1h.01M144 25.1h.01M145 25.1h.01M146 25.1h.01M147 25.1h.01M148 25.1h.01M149 25.1h.01M150 25.1h.01M151 25.1h.01M152 25.1h.01M153 25.1h.01M154 25.1h.01M155 25.1h.01M156 25.1h.01M157 25.1h.01M158 25.1h.01M159 25.1h.01M160 25.1h.01M161 25.1h.01M162 25.1h.01M163 25.1h.01M164 25.1h.01M165 25.1h.01M166 25.1h.01M167 25.1h.01M168 25.1h.01M169 25.1h.01M170 25.1h.01M171 25.1h.01M172 25.1h.01M173 25.1h.01M174 25.1h.01M175 25.1h.01M176 25.1h.01M177 25.1h.01M178 25.1h.01M5.5 26h.01M6.5 26h.01M7.5 26h.01M8.5 26h.01M9.5 26h.01M10.5 26h.01M11.5 26h.01M12.5 26h.01M13.5 26h.01M14.5 26h.01M15.5 26h.01M16.5 26h.01M17.5 26h.01M18.5 26h.01M19.5 26h.01M20.5 26h.01M21.5 26h.01M22.5 26h.01M23.5 26h.01M24.5 26h.01M25.5 26h.01M26.5 26h.01M27.5 26h.01M28.5 26h.01M29.5 26h.01M30.5 26h.01M31.5 26h.01M32.5 26h.01M33.5 26h.01M34.5 26h.01M35.5 26h.01M36.5 26h.01M37.5 26h.01M38.5 26h.01M39.5 26h.01M41.5 26h.01M42.5 26h.01M43.5 26h.01M50.5 26h.01M51.5 26h.01M85.5 26h.01M86.5 26h.01M87.5 26h.01M88.5 26h.01M89.5 26h.01M90.5 26h.01M91.5 26h.01M92.5 26h.01M93.5 26h.01M94.5 26h.01M95.5 26h.01M96.5 26h.01M97.5 26h.01M98.5 26h.01M99.5 26h.01M100.5 26h.01M101.5 26h.01M102.5 26h.01M103.5 26h.01M104.5 26h.01M105.5 26h.01M106.5 26h.01M107.5 26h.01M108.5 26h.01M109.5 26h.01M110.5 26h.01M111.5 26h.01M112.5 26h.01M113.5 26h.01M114.5 26h.01M115.5 26h.01M116.5 26h.01M117.5 26h.01M118.5 26h.01M119.5 26h.01M120.5 26h.01M121.5 26h.01M122.5 26h.01M123.5 26h.01M124.5 26h.01M125.5 26h.01M126.5 26h.01M127.5 26h.01M128.5 26h.01M129.5 26h.01M130.5 26h.01M131.5 26h.01M132.5 26h.01M133.5 26h.01M134.5 26h.01M135.5 26h.01M136.5 26h.01M137.5 26h.01M138.5 26h.01M139.5 26h.01M140.5 26h.01M141.5 26h.01M142.5 26h.01M143.5 26h.01M144.5 26h.01M145.5 26h.01M146.5 26h.01M147.5 26h.01M148.5 26h.01M149.5 26h.01M150.5 26h.01M151.5 26h.01M152.5 26h.01M153.5 26h.01M154.5 26h.01M155.5 26h.01M156.5 26h.01M157.5 26h.01M158.5 26h.01M159.5 26h.01M160.5 26h.01M161.5 26h.01M162.5 26h.01M163.5 26h.01M164.5 26h.01M165.5 26h.01M166.5 26h.01M167.5 26h.01M168.5 26h.01M169.5 26h.01M170.5 26h.01M171.5 26h.01M172.5 26h.01M173.5 26h.01M174.5 26h.01M175.5 26h.01M176.5 26h.01M177.5 26h.01M179.5 26h.01M6 26.8h.01M7 26.8h.01M8 26.8h.01M9 26.8h.01M10 26.8h.01M11 26.8h.01M12 26.8h.01M13 26.8h.01M14 26.8h.01M15 26.8h.01M16 26.8h.01M17 26.8h.01M18 26.8h.01M19 26.8h.01M20 26.8h.01M21 26.8h.01M22 26.8h.01M23 26.8h.01M24 26.8h.01M25 26.8h.01M26 26.8h.01M27 26.8h.01M28 26.8h.01M29 26.8h.01M30 26.8h.01M31 26.8h.01M32 26.8h.01M33 26.8h.01M34 26.8h.01M35 26.8h.01M36 26.8h.01M37 26.8h.01M38 26.8h.01M39 26.8h.01M40 26.8h.01M41 26.8h.01M42 26.8h.01M43 26.8h.01M44 26.8h.01M86 26.8h.01M87 26.8h.01M88 26.8h.01M89 26.8h.01M90 26.8h.01M91 26.8h.01M92 26.8h.01M93 26.8h.01M94 26.8h.01M95 26.8h.01M96 26.8h.01M97 26.8h.01M98 26.8h.01M99 26.8h.01M100 26.8h.01M101 26.8h.01M102 26.8h.01M103 26.8h.01M104 26.8h.01M105 26.8h.01M106 26.8h.01M108 26.8h.01M109 26.8h.01M112 26.8h.01M113 26.8h.01M114 26.8h.01M115 26.8h.01M116 26.8h.01M117 26.8h.01M118 26.8h.01M119 26.8h.01M122 26.8h.01M123 26.8h.01M124 26.8h.01M125 26.8h.01M126 26.8h.01M127 26.8h.01M128 26.8h.01M129 26.8h.01M130 26.8h.01M131 26.8h.01M132 26.8h.01M133 26.8h.01M134 26.8h.01M135 26.8h.01M136 26.8h.01M137 26.8h.01M138 26.8h.01M139 26.8h.01M140 26.8h.01M141 26.8h.01M142 26.8h.01M143 26.8h.01M144 26.8h.01M145 26.8h.01M146 26.8h.01M147 26.8h.01M148 26.8h.01M149 26.8h.01M150 26.8h.01M151 26.8h.01M152 26.8h.01M153 26.8h.01M154 26.8h.01M155 26.8h.01M156 26.8h.01M157 26.8h.01M158 26.8h.01M159 26.8h.01M160 26.8h.01M161 26.8h.01M162 26.8h.01M163 26.8h.01M164 26.8h.01M165 26.8h.01M166 26.8h.01M167 26.8h.01M168 26.8h.01M169 26.8h.01M170 26.8h.01M171 26.8h.01M172 26.8h.01M173 26.8h.01M174 26.8h.01M175 26.8h.01M176 26.8h.01M177 26.8h.01M5.5 27.7h.01M6.5 27.7h.01M7.5 27.7h.01M8.5 27.7h.01M9.5 27.7h.01M10.5 27.7h.01M11.5 27.7h.01M12.5 27.7h.01M13.5 27.7h.01M14.5 27.7h.01M15.5 27.7h.01M16.5 27.7h.01M17.5 27.7h.01M18.5 27.7h.01M19.5 27.7h.01M20.5 27.7h.01M21.5 27.7h.01M22.5 27.7h.01M23.5 27.7h.01M24.5 27.7h.01M25.5 27.7h.01M26.5 27.7h.01M27.5 27.7h.01M28.5 27.7h.01M29.5 27.7h.01M30.5 27.7h.01M31.5 27.7h.01M32.5 27.7h.01M33.5 27.7h.01M34.5 27.7h.01M35.5 27.7h.01M36.5 27.7h.01M37.5 27.7h.01M38.5 27.7h.01M39.5 27.7h.01M40.5 27.7h.01M41.5 27.7h.01M42.5 27.7h.01M43.5 27.7h.01M44.5 27.7h.01M45.5 27.7h.01M46.5 27.7h.01M86.5 27.7h.01M87.5 27.7h.01M88.5 27.7h.01M89.5 27.7h.01M90.5 27.7h.01M91.5 27.7h.01M92.5 27.7h.01M93.5 27.7h.01M94.5 27.7h.01M95.5 27.7h.01M96.5 27.7h.01M97.5 27.7h.01M98.5 27.7h.01M99.5 27.7h.01M100.5 27.7h.01M101.5 27.7h.01M102.5 27.7h.01M103.5 27.7h.01M104.5 27.7h.01M105.5 27.7h.01M108.5 27.7h.01M111.5 27.7h.01M112.5 27.7h.01M113.5 27.7h.01M114.5 27.7h.01M115.5 27.7h.01M116.5 27.7h.01M117.5 27.7h.01M121.5 27.7h.01M122.5 27.7h.01M123.5 27.7h.01M124.5 27.7h.01M125.5 27.7h.01M126.5 27.7h.01M127.5 27.7h.01M128.5 27.7h.01M129.5 27.7h.01M130.5 27.7h.01M131.5 27.7h.01M132.5 27.7h.01M133.5 27.7h.01M134.5 27.7h.01M135.5 27.7h.01M136.5 27.7h.01M137.5 27.7h.01M138.5 27.7h.01M139.5 27.7h.01M140.5 27.7h.01M141.5 27.7h.01M142.5 27.7h.01M143.5 27.7h.01M144.5 27.7h.01M145.5 27.7h.01M146.5 27.7h.01M147.5 27.7h.01M148.5 27.7h.01M149.5 27.7h.01M150.5 27.7h.01M151.5 27.7h.01M152.5 27.7h.01M153.5 27.7h.01M154.5 27.7h.01M155.5 27.7h.01M156.5 27.7h.01M157.5 27.7h.01M158.5 27.7h.01M159.5 27.7h.01M160.5 27.7h.01M161.5 27.7h.01M162.5 27.7h.01M163.5 27.7h.01M164.5 27.7h.01M165.5 27.7h.01M166.5 27.7h.01M167.5 27.7h.01M168.5 27.7h.01M169.5 27.7h.01M170.5 27.7h.01M171.5 27.7h.01M172.5 27.7h.01M173.5 27.7h.01M174.5 27.7h.01M175.5 27.7h.01M6 28.6h.01M7 28.6h.01M8 28.6h.01M9 28.6h.01M10 28.6h.01M11 28.6h.01M12 28.6h.01M13 28.6h.01M14 28.6h.01M15 28.6h.01M16 28.6h.01M17 28.6h.01M18 28.6h.01M19 28.6h.01M20 28.6h.01M21 28.6h.01M22 28.6h.01M23 28.6h.01M24 28.6h.01M25 28.6h.01M26 28.6h.01M27 28.6h.01M28 28.6h.01M29 28.6h.01M30 28.6h.01M31 28.6h.01M32 28.6h.01M33 28.6h.01M34 28.6h.01M35 28.6h.01M36 28.6h.01M37 28.6h.01M38 28.6h.01M39 28.6h.01M40 28.6h.01M41 28.6h.01M42 28.6h.01M44 28.6h.01M45 28.6h.01M86 28.6h.01M87 28.6h.01M88 28.6h.01M89 28.6h.01M90 28.6h.01M91 28.6h.01M92 28.6h.01M93 28.6h.01M94 28.6h.01M97 28.6h.01M98 28.6h.01M99 28.6h.01M100 28.6h.01M101 28.6h.01M102 28.6h.01M103 28.6h.01M104 28.6h.01M105 28.6h.01M109 28.6h.01M111 28.6h.01M112 28.6h.01M113 28.6h.01M114 28.6h.01M115 28.6h.01M116 28.6h.01M117 28.6h.01M121 28.6h.01M122 28.6h.01M123 28.6h.01M124 28.6h.01M125 28.6h.01M126 28.6h.01M127 28.6h.01M128 28.6h.01M129 28.6h.01M130 28.6h.01M131 28.6h.01M132 28.6h.01M133 28.6h.01M134 28.6h.01M135 28.6h.01M136 28.6h.01M137 28.6h.01M138 28.6h.01M139 28.6h.01M140 28.6h.01M141 28.6h.01M142 28.6h.01M143 28.6h.01M144 28.6h.01M145 28.6h.01M146 28.6h.01M147 28.6h.01M148 28.6h.01M149 28.6h.01M150 28.6h.01M151 28.6h.01M152 28.6h.01M153 28.6h.01M154 28.6h.01M155 28.6h.01M156 28.6h.01M157 28.6h.01M158 28.6h.01M159 28.6h.01M160 28.6h.01M161 28.6h.01M162 28.6h.01M163 28.6h.01M164 28.6h.01M165 28.6h.01M166 28.6h.01M167 28.6h.01M168 28.6h.01M169 28.6h.01M170 28.6h.01M171 28.6h.01M172 28.6h.01M173 28.6h.01M174 28.6h.01M175 28.6h.01M180 28.6h.01M5.5 29.4h.01M6.5 29.4h.01M7.5 29.4h.01M8.5 29.4h.01M9.5 29.4h.01M10.5 29.4h.01M11.5 29.4h.01M12.5 29.4h.01M13.5 29.4h.01M14.5 29.4h.01M15.5 29.4h.01M16.5 29.4h.01M17.5 29.4h.01M18.5 29.4h.01M19.5 29.4h.01M20.5 29.4h.01M21.5 29.4h.01M22.5 29.4h.01M23.5 29.4h.01M24.5 29.4h.01M25.5 29.4h.01M26.5 29.4h.01M27.5 29.4h.01M28.5 29.4h.01M29.5 29.4h.01M30.5 29.4h.01M31.5 29.4h.01M32.5 29.4h.01M33.5 29.4h.01M34.5 29.4h.01M35.5 29.4h.01M36.5 29.4h.01M37.5 29.4h.01M38.5 29.4h.01M39.5 29.4h.01M40.5 29.4h.01M43.5 29.4h.01M85.5 29.4h.01M86.5 29.4h.01M87.5 29.4h.01M88.5 29.4h.01M89.5 29.4h.01M90.5 29.4h.01M91.5 29.4h.01M93.5 29.4h.01M94.5 29.4h.01M97.5 29.4h.01M98.5 29.4h.01M99.5 29.4h.01M100.5 29.4h.01M101.5 29.4h.01M102.5 29.4h.01M103.5 29.4h.01M104.5 29.4h.01M112.5 29.4h.01M113.5 29.4h.01M114.5 29.4h.01M115.5 29.4h.01M116.5 29.4h.01M117.5 29.4h.01M120.5 29.4h.01M121.5 29.4h.01M122.5 29.4h.01M123.5 29.4h.01M124.5 29.4h.01M125.5 29.4h.01M126.5 29.4h.01M127.5 29.4h.01M128.5 29.4h.01M129.5 29.4h.01M130.5 29.4h.01M131.5 29.4h.01M132.5 29.4h.01M133.5 29.4h.01M134.5 29.4h.01M135.5 29.4h.01M136.5 29.4h.01M137.5 29.4h.01M138.5 29.4h.01M139.5 29.4h.01M140.5 29.4h.01M141.5 29.4h.01M142.5 29.4h.01M143.5 29.4h.01M144.5 29.4h.01M145.5 29.4h.01M146.5 29.4h.01M147.5 29.4h.01M148.5 29.4h.01M149.5 29.4h.01M150.5 29.4h.01M151.5 29.4h.01M152.5 29.4h.01M153.5 29.4h.01M154.5 29.4h.01M155.5 29.4h.01M156.5 29.4h.01M157.5 29.4h.01M158.5 29.4h.01M159.5 29.4h.01M160.5 29.4h.01M161.5 29.4h.01M162.5 29.4h.01M163.5 29.4h.01M164.5 29.4h.01M165.5 29.4h.01M166.5 29.4h.01M167.5 29.4h.01M168.5 29.4h.01M169.5 29.4h.01M170.5 29.4h.01M171.5 29.4h.01M172.5 29.4h.01M173.5 29.4h.01M174.5 29.4h.01M179.5 29.4h.01M180.5 29.4h.01M181.5 29.4h.01M5 30.3h.01M6 30.3h.01M7 30.3h.01M8 30.3h.01M9 30.3h.01M10 30.3h.01M11 30.3h.01M12 30.3h.01M13 30.3h.01M14 30.3h.01M15 30.3h.01M16 30.3h.01M17 30.3h.01M18 30.3h.01M19 30.3h.01M20 30.3h.01M21 30.3h.01M22 30.3h.01M23 30.3h.01M24 30.3h.01M25 30.3h.01M26 30.3h.01M27 30.3h.01M28 30.3h.01M29 30.3h.01M30 30.3h.01M31 30.3h.01M32 30.3h.01M33 30.3h.01M34 30.3h.01M35 30.3h.01M36 30.3h.01M37 30.3h.01M38 30.3h.01M39 30.3h.01M40 30.3h.01M81 30.3h.01M82 30.3h.01M83 30.3h.01M84 30.3h.01M85 30.3h.01M86 30.3h.01M87 30.3h.01M88 30.3h.01M94 30.3h.01M95 30.3h.01M98 30.3h.01M99 30.3h.01M100 30.3h.01M101 30.3h.01M102 30.3h.01M103 30.3h.01M104 30.3h.01M114 30.3h.01M115 30.3h.01M116 30.3h.01M117 30.3h.01M121 30.3h.01M122 30.3h.01M123 30.3h.01M124 30.3h.01M125 30.3h.01M126 30.3h.01M127 30.3h.01M128 30.3h.01M129 30.3h.01M130 30.3h.01M131 30.3h.01M132 30.3h.01M133 30.3h.01M134 30.3h.01M135 30.3h.01M136 30.3h.01M137 30.3h.01M138 30.3h.01M139 30.3h.01M140 30.3h.01M141 30.3h.01M142 30.3h.01M143 30.3h.01M144 30.3h.01M145 30.3h.01M146 30.3h.01M147 30.3h.01M148 30.3h.01M149 30.3h.01M150 30.3h.01M151 30.3h.01M152 30.3h.01M153 30.3h.01M154 30.3h.01M155 30.3h.01M156 30.3h.01M157 30.3h.01M158 30.3h.01M159 30.3h.01M160 30.3h.01M161 30.3h.01M162 30.3h.01M163 30.3h.01M164 30.3h.01M165 30.3h.01M166 30.3h.01M167 30.3h.01M168 30.3h.01M169 30.3h.01M170 30.3h.01M171 30.3h.01M172 30.3h.01M179 30.3h.01M180 30.3h.01M5.5 31.2h.01M6.5 31.2h.01M7.5 31.2h.01M8.5 31.2h.01M9.5 31.2h.01M10.5 31.2h.01M11.5 31.2h.01M12.5 31.2h.01M13.5 31.2h.01M14.5 31.2h.01M15.5 31.2h.01M16.5 31.2h.01M17.5 31.2h.01M18.5 31.2h.01M19.5 31.2h.01M20.5 31.2h.01M21.5 31.2h.01M22.5 31.2h.01M23.5 31.2h.01M24.5 31.2h.01M25.5 31.2h.01M26.5 31.2h.01M27.5 31.2h.01M28.5 31.2h.01M29.5 31.2h.01M30.5 31.2h.01M31.5 31.2h.01M32.5 31.2h.01M33.5 31.2h.01M34.5 31.2h.01M35.5 31.2h.01M36.5 31.2h.01M37.5 31.2h.01M38.5 31.2h.01M39.5 31.2h.01M81.5 31.2h.01M82.5 31.2h.01M83.5 31.2h.01M84.5 31.2h.01M85.5 31.2h.01M86.5 31.2h.01M87.5 31.2h.01M92.5 31.2h.01M94.5 31.2h.01M95.5 31.2h.01M96.5 31.2h.01M99.5 31.2h.01M100.5 31.2h.01M101.5 31.2h.01M102.5 31.2h.01M103.5 31.2h.01M104.5 31.2h.01M108.5 31.2h.01M109.5 31.2h.01M114.5 31.2h.01M115.5 31.2h.01M116.5 31.2h.01M117.5 31.2h.01M122.5 31.2h.01M123.5 31.2h.01M124.5 31.2h.01M125.5 31.2h.01M126.5 31.2h.01M127.5 31.2h.01M128.5 31.2h.01M129.5 31.2h.01M130.5 31.2h.01M131.5 31.2h.01M132.5 31.2h.01M133.5 31.2h.01M134.5 31.2h.01M135.5 31.2h.01M136.5 31.2h.01M137.5 31.2h.01M138.5 31.2h.01M139.5 31.2h.01M140.5 31.2h.01M141.5 31.2h.01M142.5 31.2h.01M143.5 31.2h.01M144.5 31.2h.01M145.5 31.2h.01M146.5 31.2h.01M147.5 31.2h.01M148.5 31.2h.01M149.5 31.2h.01M150.5 31.2h.01M151.5 31.2h.01M152.5 31.2h.01M153.5 31.2h.01M154.5 31.2h.01M155.5 31.2h.01M156.5 31.2h.01M157.5 31.2h.01M158.5 31.2h.01M159.5 31.2h.01M160.5 31.2h.01M161.5 31.2h.01M162.5 31.2h.01M163.5 31.2h.01M164.5 31.2h.01M165.5 31.2h.01M166.5 31.2h.01M167.5 31.2h.01M168.5 31.2h.01M169.5 31.2h.01M170.5 31.2h.01M171.5 31.2h.01M178.5 31.2h.01M6 32h.01M7 32h.01M8 32h.01M9 32h.01M10 32h.01M11 32h.01M12 32h.01M13 32h.01M14 32h.01M15 32h.01M16 32h.01M17 32h.01M18 32h.01M19 32h.01M20 32h.01M21 32h.01M22 32h.01M23 32h.01M24 32h.01M25 32h.01M26 32h.01M27 32h.01M28 32h.01M29 32h.01M30 32h.01M31 32h.01M32 32h.01M33 32h.01M34 32h.01M35 32h.01M36 32h.01M37 32h.01M38 32h.01M39 32h.01M81 32h.01M82 32h.01M83 32h.01M84 32h.01M85 32h.01M86 32h.01M92 32h.01M96 32h.01M97 32h.01M100 32h.01M101 32h.01M102 32h.01M104 32h.01M106 32h.01M107 32h.01M108 32h.01M109 32h.01M110 32h.01M111 32h.01M112 32h.01M113 32h.01M114 32h.01M115 32h.01M116 32h.01M117 32h.01M118 32h.01M123 32h.01M124 32h.01M125 32h.01M126 32h.01M127 32h.01M128 32h.01M129 32h.01M130 32h.01M131 32h.01M132 32h.01M133 32h.01M134 32h.01M135 32h.01M136 32h.01M137 32h.01M138 32h.01M139 32h.01M140 32h.01M141 32h.01M142 32h.01M143 32h.01M144 32h.01M145 32h.01M146 32h.01M147 32h.01M148 32h.01M149 32h.01M150 32h.01M151 32h.01M152 32h.01M153 32h.01M154 32h.01M155 32h.01M156 32h.01M157 32h.01M158 32h.01M159 32h.01M160 32h.01M161 32h.01M162 32h.01M163 32h.01M164 32h.01M165 32h.01M167 32h.01M168 32h.01M169 32h.01M170 32h.01M171 32h.01M179 32h.01M5.5 32.9h.01M6.5 32.9h.01M7.5 32.9h.01M8.5 32.9h.01M9.5 32.9h.01M10.5 32.9h.01M11.5 32.9h.01M12.5 32.9h.01M13.5 32.9h.01M14.5 32.9h.01M15.5 32.9h.01M16.5 32.9h.01M17.5 32.9h.01M18.5 32.9h.01M19.5 32.9h.01M20.5 32.9h.01M21.5 32.9h.01M22.5 32.9h.01M23.5 32.9h.01M24.5 32.9h.01M25.5 32.9h.01M26.5 32.9h.01M27.5 32.9h.01M28.5 32.9h.01M29.5 32.9h.01M30.5 32.9h.01M31.5 32.9h.01M32.5 32.9h.01M33.5 32.9h.01M34.5 32.9h.01M35.5 32.9h.01M36.5 32.9h.01M37.5 32.9h.01M81.5 32.9h.01M82.5 32.9h.01M83.5 32.9h.01M84.5 32.9h.01M85.5 32.9h.01M92.5 32.9h.01M100.5 32.9h.01M104.5 32.9h.01M105.5 32.9h.01M106.5 32.9h.01M107.5 32.9h.01M108.5 32.9h.01M109.5 32.9h.01M110.5 32.9h.01M111.5 32.9h.01M112.5 32.9h.01M113.5 32.9h.01M114.5 32.9h.01M115.5 32.9h.01M116.5 32.9h.01M117.5 32.9h.01M118.5 32.9h.01M121.5 32.9h.01M122.5 32.9h.01M123.5 32.9h.01M124.5 32.9h.01M125.5 32.9h.01M126.5 32.9h.01M127.5 32.9h.01M128.5 32.9h.01M129.5 32.9h.01M130.5 32.9h.01M131.5 32.9h.01M132.5 32.9h.01M133.5 32.9h.01M134.5 32.9h.01M135.5 32.9h.01M136.5 32.9h.01M137.5 32.9h.01M138.5 32.9h.01M139.5 32.9h.01M140.5 32.9h.01M141.5 32.9h.01M142.5 32.9h.01M143.5 32.9h.01M144.5 32.9h.01M145.5 32.9h.01M146.5 32.9h.01M147.5 32.9h.01M148.5 32.9h.01M149.5 32.9h.01M150.5 32.9h.01M151.5 32.9h.01M152.5 32.9h.01M153.5 32.9h.01M154.5 32.9h.01M155.5 32.9h.01M156.5 32.9h.01M157.5 32.9h.01M158.5 32.9h.01M159.5 32.9h.01M160.5 32.9h.01M161.5 32.9h.01M162.5 32.9h.01M163.5 32.9h.01M164.5 32.9h.01M166.5 32.9h.01M167.5 32.9h.01M168.5 32.9h.01M169.5 32.9h.01M178.5 32.9h.01M6 33.8h.01M7 33.8h.01M8 33.8h.01M9 33.8h.01M10 33.8h.01M11 33.8h.01M12 33.8h.01M13 33.8h.01M14 33.8h.01M15 33.8h.01M16 33.8h.01M17 33.8h.01M18 33.8h.01M19 33.8h.01M20 33.8h.01M21 33.8h.01M22 33.8h.01M23 33.8h.01M24 33.8h.01M25 33.8h.01M26 33.8h.01M27 33.8h.01M28 33.8h.01M29 33.8h.01M30 33.8h.01M31 33.8h.01M32 33.8h.01M33 33.8h.01M34 33.8h.01M35 33.8h.01M36 33.8h.01M37 33.8h.01M81 33.8h.01M82 33.8h.01M83 33.8h.01M84 33.8h.01M85 33.8h.01M86 33.8h.01M97 33.8h.01M101 33.8h.01M104 33.8h.01M105 33.8h.01M106 33.8h.01M107 33.8h.01M108 33.8h.01M109 33.8h.01M110 33.8h.01M111 33.8h.01M112 33.8h.01M113 33.8h.01M114 33.8h.01M115 33.8h.01M116 33.8h.01M117 33.8h.01M118 33.8h.01M122 33.8h.01M123 33.8h.01M124 33.8h.01M125 33.8h.01M126 33.8h.01M127 33.8h.01M128 33.8h.01M129 33.8h.01M130 33.8h.01M131 33.8h.01M132 33.8h.01M133 33.8h.01M134 33.8h.01M135 33.8h.01M136 33.8h.01M137 33.8h.01M138 33.8h.01M139 33.8h.01M140 33.8h.01M141 33.8h.01M142 33.8h.01M143 33.8h.01M144 33.8h.01M145 33.8h.01M146 33.8h.01M147 33.8h.01M148 33.8h.01M149 33.8h.01M150 33.8h.01M151 33.8h.01M152 33.8h.01M153 33.8h.01M154 33.8h.01M155 33.8h.01M156 33.8h.01M157 33.8h.01M158 33.8h.01M159 33.8h.01M160 33.8h.01M161 33.8h.01M162 33.8h.01M163 33.8h.01M169 33.8h.01M170 33.8h.01M178 33.8h.01M179 33.8h.01M6.5 34.6h.01M7.5 34.6h.01M8.5 34.6h.01M9.5 34.6h.01M10.5 34.6h.01M11.5 34.6h.01M12.5 34.6h.01M13.5 34.6h.01M14.5 34.6h.01M15.5 34.6h.01M16.5 34.6h.01M17.5 34.6h.01M18.5 34.6h.01M19.5 34.6h.01M20.5 34.6h.01M21.5 34.6h.01M22.5 34.6h.01M23.5 34.6h.01M24.5 34.6h.01M25.5 34.6h.01M26.5 34.6h.01M27.5 34.6h.01M28.5 34.6h.01M29.5 34.6h.01M30.5 34.6h.01M31.5 34.6h.01M32.5 34.6h.01M33.5 34.6h.01M34.5 34.6h.01M35.5 34.6h.01M81.5 34.6h.01M82.5 34.6h.01M83.5 34.6h.01M84.5 34.6h.01M85.5 34.6h.01M95.5 34.6h.01M100.5 34.6h.01M101.5 34.6h.01M104.5 34.6h.01M105.5 34.6h.01M106.5 34.6h.01M107.5 34.6h.01M108.5 34.6h.01M109.5 34.6h.01M110.5 34.6h.01M111.5 34.6h.01M112.5 34.6h.01M113.5 34.6h.01M114.5 34.6h.01M115.5 34.6h.01M116.5 34.6h.01M117.5 34.6h.01M118.5 34.6h.01M122.5 34.6h.01M123.5 34.6h.01M124.5 34.6h.01M125.5 34.6h.01M126.5 34.6h.01M127.5 34.6h.01M128.5 34.6h.01M129.5 34.6h.01M130.5 34.6h.01M131.5 34.6h.01M132.5 34.6h.01M133.5 34.6h.01M134.5 34.6h.01M135.5 34.6h.01M136.5 34.6h.01M137.5 34.6h.01M138.5 34.6h.01M139.5 34.6h.01M140.5 34.6h.01M141.5 34.6h.01M142.5 34.6h.01M143.5 34.6h.01M144.5 34.6h.01M145.5 34.6h.01M146.5 34.6h.01M147.5 34.6h.01M148.5 34.6h.01M149.5 34.6h.01M150.5 34.6h.01M151.5 34.6h.01M152.5 34.6h.01M153.5 34.6h.01M154.5 34.6h.01M155.5 34.6h.01M156.5 34.6h.01M157.5 34.6h.01M158.5 34.6h.01M159.5 34.6h.01M160.5 34.6h.01M161.5 34.6h.01M162.5 34.6h.01M163.5 34.6h.01M165.5 34.6h.01M168.5 34.6h.01M169.5 34.6h.01M170.5 34.6h.01M177.5 34.6h.01M178.5 34.6h.01M7 35.5h.01M8 35.5h.01M9 35.5h.01M10 35.5h.01M11 35.5h.01M12 35.5h.01M13 35.5h.01M14 35.5h.01M15 35.5h.01M16 35.5h.01M17 35.5h.01M18 35.5h.01M19 35.5h.01M20 35.5h.01M21 35.5h.01M22 35.5h.01M23 35.5h.01M24 35.5h.01M25 35.5h.01M26 35.5h.01M27 35.5h.01M28 35.5h.01M29 35.5h.01M30 35.5h.01M31 35.5h.01M32 35.5h.01M33 35.5h.01M34 35.5h.01M35 35.5h.01M36 35.5h.01M83 35.5h.01M84 35.5h.01M85 35.5h.01M88 35.5h.01M89 35.5h.01M90 35.5h.01M91 35.5h.01M92 35.5h.01M93 35.5h.01M101 35.5h.01M105 35.5h.01M106 35.5h.01M107 35.5h.01M108 35.5h.01M109 35.5h.01M110 35.5h.01M111 35.5h.01M112 35.5h.01M113 35.5h.01M114 35.5h.01M115 35.5h.01M116 35.5h.01M117 35.5h.01M118 35.5h.01M119 35.5h.01M120 35.5h.01M121 35.5h.01M122 35.5h.01M123 35.5h.01M124 35.5h.01M125 35.5h.01M126 35.5h.01M127 35.5h.01M128 35.5h.01M129 35.5h.01M130 35.5h.01M131 35.5h.01M132 35.5h.01M133 35.5h.01M134 35.5h.01M135 35.5h.01M136 35.5h.01M137 35.5h.01M138 35.5h.01M139 35.5h.01M140 35.5h.01M141 35.5h.01M142 35.5h.01M143 35.5h.01M144 35.5h.01M145 35.5h.01M146 35.5h.01M147 35.5h.01M148 35.5h.01M149 35.5h.01M150 35.5h.01M151 35.5h.01M152 35.5h.01M153 35.5h.01M154 35.5h.01M155 35.5h.01M156 35.5h.01M157 35.5h.01M158 35.5h.01M159 35.5h.01M160 35.5h.01M161 35.5h.01M162 35.5h.01M163 35.5h.01M164 35.5h.01M165 35.5h.01M170 35.5h.01M171 35.5h.01M176 35.5h.01M177 35.5h.01M178 35.5h.01M7.5 36.4h.01M8.5 36.4h.01M9.5 36.4h.01M10.5 36.4h.01M11.5 36.4h.01M12.5 36.4h.01M13.5 36.4h.01M14.5 36.4h.01M15.5 36.4h.01M16.5 36.4h.01M17.5 36.4h.01M18.5 36.4h.01M19.5 36.4h.01M20.5 36.4h.01M21.5 36.4h.01M22.5 36.4h.01M23.5 36.4h.01M24.5 36.4h.01M25.5 36.4h.01M26.5 36.4h.01M27.5 36.4h.01M28.5 36.4h.01M29.5 36.4h.01M30.5 36.4h.01M31.5 36.4h.01M32.5 36.4h.01M33.5 36.4h.01M34.5 36.4h.01M35.5 36.4h.01M36.5 36.4h.01M86.5 36.4h.01M87.5 36.4h.01M88.5 36.4h.01M89.5 36.4h.01M90.5 36.4h.01M91.5 36.4h.01M92.5 36.4h.01M93.5 36.4h.01M110.5 36.4h.01M111.5 36.4h.01M112.5 36.4h.01M113.5 36.4h.01M114.5 36.4h.01M115.5 36.4h.01M116.5 36.4h.01M117.5 36.4h.01M118.5 36.4h.01M119.5 36.4h.01M120.5 36.4h.01M121.5 36.4h.01M122.5 36.4h.01M123.5 36.4h.01M124.5 36.4h.01M125.5 36.4h.01M126.5 36.4h.01M127.5 36.4h.01M128.5 36.4h.01M129.5 36.4h.01M130.5 36.4h.01M131.5 36.4h.01M132.5 36.4h.01M133.5 36.4h.01M134.5 36.4h.01M135.5 36.4h.01M136.5 36.4h.01M137.5 36.4h.01M138.5 36.4h.01M139.5 36.4h.01M140.5 36.4h.01M141.5 36.4h.01M142.5 36.4h.01M143.5 36.4h.01M144.5 36.4h.01M145.5 36.4h.01M146.5 36.4h.01M147.5 36.4h.01M148.5 36.4h.01M149.5 36.4h.01M150.5 36.4h.01M151.5 36.4h.01M152.5 36.4h.01M153.5 36.4h.01M154.5 36.4h.01M155.5 36.4h.01M156.5 36.4h.01M157.5 36.4h.01M158.5 36.4h.01M159.5 36.4h.01M160.5 36.4h.01M161.5 36.4h.01M162.5 36.4h.01M163.5 36.4h.01M164.5 36.4h.01M169.5 36.4h.01M170.5 36.4h.01M174.5 36.4h.01M175.5 36.4h.01M176.5 36.4h.01M177.5 36.4h.01M178.5 36.4h.01M8 37.2h.01M9 37.2h.01M10 37.2h.01M11 37.2h.01M12 37.2h.01M13 37.2h.01M14 37.2h.01M15 37.2h.01M16 37.2h.01M17 37.2h.01M18 37.2h.01M19 37.2h.01M20 37.2h.01M21 37.2h.01M22 37.2h.01M23 37.2h.01M24 37.2h.01M25 37.2h.01M26 37.2h.01M27 37.2h.01M28 37.2h.01M29 37.2h.01M30 37.2h.01M31 37.2h.01M32 37.2h.01M33 37.2h.01M34 37.2h.01M35 37.2h.01M83 37.2h.01M84 37.2h.01M85 37.2h.01M86 37.2h.01M87 37.2h.01M88 37.2h.01M89 37.2h.01M90 37.2h.01M91 37.2h.01M92 37.2h.01M93 37.2h.01M110 37.2h.01M111 37.2h.01M112 37.2h.01M113 37.2h.01M114 37.2h.01M115 37.2h.01M116 37.2h.01M117 37.2h.01M118 37.2h.01M119 37.2h.01M120 37.2h.01M121 37.2h.01M122 37.2h.01M123 37.2h.01M124 37.2h.01M125 37.2h.01M126 37.2h.01M127 37.2h.01M128 37.2h.01M129 37.2h.01M130 37.2h.01M131 37.2h.01M132 37.2h.01M133 37.2h.01M134 37.2h.01M135 37.2h.01M136 37.2h.01M137 37.2h.01M138 37.2h.01M139 37.2h.01M140 37.2h.01M141 37.2h.01M142 37.2h.01M143 37.2h.01M144 37.2h.01M145 37.2h.01M146 37.2h.01M147 37.2h.01M148 37.2h.01M149 37.2h.01M150 37.2h.01M151 37.2h.01M152 37.2h.01M153 37.2h.01M154 37.2h.01M155 37.2h.01M156 37.2h.01M157 37.2h.01M158 37.2h.01M159 37.2h.01M160 37.2h.01M161 37.2h.01M162 37.2h.01M163 37.2h.01M164 37.2h.01M173 37.2h.01M174 37.2h.01M175 37.2h.01M176 37.2h.01M9.5 38.1h.01M10.5 38.1h.01M11.5 38.1h.01M12.5 38.1h.01M13.5 38.1h.01M14.5 38.1h.01M15.5 38.1h.01M16.5 38.1h.01M17.5 38.1h.01M18.5 38.1h.01M19.5 38.1h.01M20.5 38.1h.01M21.5 38.1h.01M22.5 38.1h.01M23.5 38.1h.01M24.5 38.1h.01M25.5 38.1h.01M26.5 38.1h.01M27.5 38.1h.01M28.5 38.1h.01M29.5 38.1h.01M30.5 38.1h.01M31.5 38.1h.01M32.5 38.1h.01M33.5 38.1h.01M34.5 38.1h.01M81.5 38.1h.01M82.5 38.1h.01M83.5 38.1h.01M84.5 38.1h.01M85.5 38.1h.01M86.5 38.1h.01M87.5 38.1h.01M88.5 38.1h.01M89.5 38.1h.01M90.5 38.1h.01M91.5 38.1h.01M92.5 38.1h.01M93.5 38.1h.01M110.5 38.1h.01M111.5 38.1h.01M112.5 38.1h.01M113.5 38.1h.01M114.5 38.1h.01M115.5 38.1h.01M116.5 38.1h.01M117.5 38.1h.01M118.5 38.1h.01M119.5 38.1h.01M120.5 38.1h.01M121.5 38.1h.01M122.5 38.1h.01M123.5 38.1h.01M124.5 38.1h.01M125.5 38.1h.01M126.5 38.1h.01M127.5 38.1h.01M128.5 38.1h.01M129.5 38.1h.01M130.5 38.1h.01M131.5 38.1h.01M132.5 38.1h.01M133.5 38.1h.01M134.5 38.1h.01M135.5 38.1h.01M136.5 38.1h.01M137.5 38.1h.01M138.5 38.1h.01M139.5 38.1h.01M140.5 38.1h.01M141.5 38.1h.01M142.5 38.1h.01M143.5 38.1h.01M144.5 38.1h.01M145.5 38.1h.01M146.5 38.1h.01M147.5 38.1h.01M148.5 38.1h.01M149.5 38.1h.01M150.5 38.1h.01M151.5 38.1h.01M152.5 38.1h.01M153.5 38.1h.01M154.5 38.1h.01M155.5 38.1h.01M156.5 38.1h.01M157.5 38.1h.01M158.5 38.1h.01M159.5 38.1h.01M160.5 38.1h.01M161.5 38.1h.01M162.5 38.1h.01M163.5 38.1h.01M164.5 38.1h.01M171.5 38.1h.01M172.5 38.1h.01M173.5 38.1h.01M10 39h.01M11 39h.01M12 39h.01M13 39h.01M14 39h.01M15 39h.01M16 39h.01M17 39h.01M18 39h.01M19 39h.01M20 39h.01M21 39h.01M22 39h.01M23 39h.01M24 39h.01M25 39h.01M26 39h.01M27 39h.01M28 39h.01M29 39h.01M30 39h.01M31 39h.01M32 39h.01M33 39h.01M81 39h.01M82 39h.01M83 39h.01M84 39h.01M85 39h.01M86 39h.01M87 39h.01M88 39h.01M89 39h.01M90 39h.01M91 39h.01M92 39h.01M93 39h.01M94 39h.01M95 39h.01M96 39h.01M100 39h.01M101 39h.01M110 39h.01M111 39h.01M112 39h.01M113 39h.01M114 39h.01M115 39h.01M116 39h.01M117 39h.01M118 39h.01M119 39h.01M120 39h.01M121 39h.01M122 39h.01M123 39h.01M124 39h.01M125 39h.01M126 39h.01M127 39h.01M128 39h.01M129 39h.01M130 39h.01M131 39h.01M132 39h.01M133 39h.01M134 39h.01M135 39h.01M136 39h.01M137 39h.01M138 39h.01M139 39h.01M140 39h.01M141 39h.01M142 39h.01M143 39h.01M144 39h.01M145 39h.01M146 39h.01M147 39h.01M148 39h.01M149 39h.01M150 39h.01M151 39h.01M152 39h.01M153 39h.01M154 39h.01M155 39h.01M156 39h.01M157 39h.01M158 39h.01M159 39h.01M160 39h.01M161 39h.01M162 39h.01M163 39h.01M164 39h.01M165 39h.01M172 39h.01M10.5 39.8h.01M12.5 39.8h.01M13.5 39.8h.01M14.5 39.8h.01M15.5 39.8h.01M16.5 39.8h.01M17.5 39.8h.01M18.5 39.8h.01M19.5 39.8h.01M20.5 39.8h.01M21.5 39.8h.01M22.5 39.8h.01M23.5 39.8h.01M24.5 39.8h.01M25.5 39.8h.01M26.5 39.8h.01M27.5 39.8h.01M28.5 39.8h.01M29.5 39.8h.01M30.5 39.8h.01M31.5 39.8h.01M32.5 39.8h.01M80.5 39.8h.01M81.5 39.8h.01M82.5 39.8h.01M83.5 39.8h.01M84.5 39.8h.01M85.5 39.8h.01M86.5 39.8h.01M87.5 39.8h.01M88.5 39.8h.01M89.5 39.8h.01M90.5 39.8h.01M91.5 39.8h.01M92.5 39.8h.01M93.5 39.8h.01M94.5 39.8h.01M95.5 39.8h.01M96.5 39.8h.01M100.5 39.8h.01M101.5 39.8h.01M102.5 39.8h.01M103.5 39.8h.01M104.5 39.8h.01M106.5 39.8h.01M109.5 39.8h.01M110.5 39.8h.01M111.5 39.8h.01M112.5 39.8h.01M113.5 39.8h.01M114.5 39.8h.01M115.5 39.8h.01M116.5 39.8h.01M117.5 39.8h.01M118.5 39.8h.01M119.5 39.8h.01M120.5 39.8h.01M121.5 39.8h.01M122.5 39.8h.01M123.5 39.8h.01M124.5 39.8h.01M125.5 39.8h.01M126.5 39.8h.01M127.5 39.8h.01M128.5 39.8h.01M129.5 39.8h.01M130.5 39.8h.01M131.5 39.8h.01M132.5 39.8h.01M133.5 39.8h.01M134.5 39.8h.01M135.5 39.8h.01M136.5 39.8h.01M137.5 39.8h.01M138.5 39.8h.01M139.5 39.8h.01M140.5 39.8h.01M141.5 39.8h.01M142.5 39.8h.01M143.5 39.8h.01M144.5 39.8h.01M145.5 39.8h.01M146.5 39.8h.01M147.5 39.8h.01M148.5 39.8h.01M149.5 39.8h.01M150.5 39.8h.01M151.5 39.8h.01M152.5 39.8h.01M153.5 39.8h.01M154.5 39.8h.01M155.5 39.8h.01M156.5 39.8h.01M157.5 39.8h.01M158.5 39.8h.01M159.5 39.8h.01M160.5 39.8h.01M161.5 39.8h.01M162.5 39.8h.01M163.5 39.8h.01M164.5 39.8h.01M165.5 39.8h.01M11 40.7h.01M13 40.7h.01M14 40.7h.01M15 40.7h.01M16 40.7h.01M17 40.7h.01M18 40.7h.01M19 40.7h.01M20 40.7h.01M21 40.7h.01M22 40.7h.01M23 40.7h.01M24 40.7h.01M25 40.7h.01M26 40.7h.01M27 40.7h.01M31 40.7h.01M32 40.7h.01M33 40.7h.01M81 40.7h.01M82 40.7h.01M83 40.7h.01M84 40.7h.01M85 40.7h.01M86 40.7h.01M87 40.7h.01M88 40.7h.01M89 40.7h.01M90 40.7h.01M91 40.7h.01M92 40.7h.01M93 40.7h.01M94 40.7h.01M95 40.7h.01M96 40.7h.01M97 40.7h.01M98 40.7h.01M99 40.7h.01M100 40.7h.01M101 40.7h.01M102 40.7h.01M103 40.7h.01M104 40.7h.01M105 40.7h.01M106 40.7h.01M107 40.7h.01M108 40.7h.01M109 40.7h.01M110 40.7h.01M111 40.7h.01M112 40.7h.01M113 40.7h.01M114 40.7h.01M115 40.7h.01M116 40.7h.01M117 40.7h.01M118 40.7h.01M119 40.7h.01M120 40.7h.01M121 40.7h.01M122 40.7h.01M123 40.7h.01M124 40.7h.01M125 40.7h.01M126 40.7h.01M127 40.7h.01M128 40.7h.01M129 40.7h.01M130 40.7h.01M131 40.7h.01M132 40.7h.01M133 40.7h.01M134 40.7h.01M135 40.7h.01M136 40.7h.01M137 40.7h.01M138 40.7h.01M139 40.7h.01M140 40.7h.01M141 40.7h.01M142 40.7h.01M143 40.7h.01M144 40.7h.01M145 40.7h.01M146 40.7h.01M147 40.7h.01M148 40.7h.01M149 40.7h.01M150 40.7h.01M151 40.7h.01M152 40.7h.01M153 40.7h.01M154 40.7h.01M155 40.7h.01M156 40.7h.01M157 40.7h.01M158 40.7h.01M159 40.7h.01M160 40.7h.01M161 40.7h.01M162 40.7h.01M163 40.7h.01M164 40.7h.01M165 40.7h.01M166 40.7h.01M11.5 41.6h.01M13.5 41.6h.01M14.5 41.6h.01M15.5 41.6h.01M16.5 41.6h.01M17.5 41.6h.01M18.5 41.6h.01M19.5 41.6h.01M20.5 41.6h.01M21.5 41.6h.01M22.5 41.6h.01M23.5 41.6h.01M32.5 41.6h.01M33.5 41.6h.01M79.5 41.6h.01M80.5 41.6h.01M81.5 41.6h.01M82.5 41.6h.01M83.5 41.6h.01M84.5 41.6h.01M85.5 41.6h.01M86.5 41.6h.01M87.5 41.6h.01M88.5 41.6h.01M89.5 41.6h.01M90.5 41.6h.01M91.5 41.6h.01M92.5 41.6h.01M93.5 41.6h.01M94.5 41.6h.01M95.5 41.6h.01M96.5 41.6h.01M97.5 41.6h.01M98.5 41.6h.01M99.5 41.6h.01M100.5 41.6h.01M101.5 41.6h.01M102.5 41.6h.01M103.5 41.6h.01M104.5 41.6h.01M105.5 41.6h.01M106.5 41.6h.01M107.5 41.6h.01M108.5 41.6h.01M109.5 41.6h.01M110.5 41.6h.01M111.5 41.6h.01M112.5 41.6h.01M113.5 41.6h.01M114.5 41.6h.01M115.5 41.6h.01M116.5 41.6h.01M117.5 41.6h.01M120.5 41.6h.01M121.5 41.6h.01M122.5 41.6h.01M123.5 41.6h.01M124.5 41.6h.01M125.5 41.6h.01M126.5 41.6h.01M127.5 41.6h.01M128.5 41.6h.01M129.5 41.6h.01M130.5 41.6h.01M131.5 41.6h.01M132.5 41.6h.01M133.5 41.6h.01M134.5 41.6h.01M135.5 41.6h.01M136.5 41.6h.01M137.5 41.6h.01M138.5 41.6h.01M139.5 41.6h.01M140.5 41.6h.01M141.5 41.6h.01M142.5 41.6h.01M143.5 41.6h.01M144.5 41.6h.01M145.5 41.6h.01M146.5 41.6h.01M147.5 41.6h.01M148.5 41.6h.01M149.5 41.6h.01M150.5 41.6h.01M151.5 41.6h.01M152.5 41.6h.01M153.5 41.6h.01M154.5 41.6h.01M155.5 41.6h.01M156.5 41.6h.01M157.5 41.6h.01M158.5 41.6h.01M159.5 41.6h.01M160.5 41.6h.01M161.5 41.6h.01M162.5 41.6h.01M163.5 41.6h.01M164.5 41.6h.01M165.5 41.6h.01M12 42.4h.01M15 42.4h.01M16 42.4h.01M17 42.4h.01M18 42.4h.01M19 42.4h.01M20 42.4h.01M21 42.4h.01M22 42.4h.01M33 42.4h.01M78 42.4h.01M79 42.4h.01M80 42.4h.01M81 42.4h.01M82 42.4h.01M83 42.4h.01M84 42.4h.01M85 42.4h.01M86 42.4h.01M87 42.4h.01M88 42.4h.01M89 42.4h.01M90 42.4h.01M91 42.4h.01M92 42.4h.01M93 42.4h.01M94 42.4h.01M95 42.4h.01M96 42.4h.01M97 42.4h.01M98 42.4h.01M99 42.4h.01M100 42.4h.01M101 42.4h.01M102 42.4h.01M103 42.4h.01M104 42.4h.01M105 42.4h.01M106 42.4h.01M107 42.4h.01M108 42.4h.01M110 42.4h.01M111 42.4h.01M112 42.4h.01M113 42.4h.01M114 42.4h.01M115 42.4h.01M116 42.4h.01M117 42.4h.01M118 42.4h.01M121 42.4h.01M122 42.4h.01M123 42.4h.01M124 42.4h.01M125 42.4h.01M126 42.4h.01M127 42.4h.01M128 42.4h.01M129 42.4h.01M130 42.4h.01M131 42.4h.01M132 42.4h.01M133 42.4h.01M134 42.4h.01M135 42.4h.01M136 42.4h.01M137 42.4h.01M138 42.4h.01M139 42.4h.01M140 42.4h.01M141 42.4h.01M142 42.4h.01M143 42.4h.01M144 42.4h.01M145 42.4h.01M146 42.4h.01M147 42.4h.01M148 42.4h.01M149 42.4h.01M150 42.4h.01M151 42.4h.01M152 42.4h.01M153 42.4h.01M154 42.4h.01M155 42.4h.01M156 42.4h.01M157 42.4h.01M158 42.4h.01M159 42.4h.01M160 42.4h.01M161 42.4h.01M162 42.4h.01M163 42.4h.01M164 42.4h.01M165 42.4h.01M12.5 43.3h.01M15.5 43.3h.01M16.5 43.3h.01M17.5 43.3h.01M18.5 43.3h.01M19.5 43.3h.01M20.5 43.3h.01M21.5 43.3h.01M22.5 43.3h.01M33.5 43.3h.01M77.5 43.3h.01M78.5 43.3h.01M79.5 43.3h.01M80.5 43.3h.01M81.5 43.3h.01M82.5 43.3h.01M83.5 43.3h.01M84.5 43.3h.01M85.5 43.3h.01M86.5 43.3h.01M87.5 43.3h.01M88.5 43.3h.01M89.5 43.3h.01M90.5 43.3h.01M91.5 43.3h.01M92.5 43.3h.01M93.5 43.3h.01M94.5 43.3h.01M95.5 43.3h.01M96.5 43.3h.01M97.5 43.3h.01M98.5 43.3h.01M99.5 43.3h.01M100.5 43.3h.01M101.5 43.3h.01M102.5 43.3h.01M103.5 43.3h.01M104.5 43.3h.01M105.5 43.3h.01M106.5 43.3h.01M107.5 43.3h.01M108.5 43.3h.01M110.5 43.3h.01M111.5 43.3h.01M112.5 43.3h.01M113.5 43.3h.01M114.5 43.3h.01M115.5 43.3h.01M116.5 43.3h.01M117.5 43.3h.01M118.5 43.3h.01M124.5 43.3h.01M125.5 43.3h.01M126.5 43.3h.01M127.5 43.3h.01M128.5 43.3h.01M129.5 43.3h.01M130.5 43.3h.01M131.5 43.3h.01M132.5 43.3h.01M133.5 43.3h.01M134.5 43.3h.01M135.5 43.3h.01M136.5 43.3h.01M137.5 43.3h.01M138.5 43.3h.01M139.5 43.3h.01M140.5 43.3h.01M141.5 43.3h.01M142.5 43.3h.01M143.5 43.3h.01M144.5 43.3h.01M145.5 43.3h.01M146.5 43.3h.01M147.5 43.3h.01M148.5 43.3h.01M149.5 43.3h.01M150.5 43.3h.01M151.5 43.3h.01M152.5 43.3h.01M153.5 43.3h.01M154.5 43.3h.01M155.5 43.3h.01M156.5 43.3h.01M157.5 43.3h.01M158.5 43.3h.01M159.5 43.3h.01M160.5 43.3h.01M161.5 43.3h.01M162.5 43.3h.01M163.5 43.3h.01M164.5 43.3h.01M13 44.2h.01M16 44.2h.01M17 44.2h.01M18 44.2h.01M19 44.2h.01M20 44.2h.01M21 44.2h.01M22 44.2h.01M77 44.2h.01M78 44.2h.01M79 44.2h.01M80 44.2h.01M81 44.2h.01M82 44.2h.01M83 44.2h.01M84 44.2h.01M85 44.2h.01M86 44.2h.01M87 44.2h.01M88 44.2h.01M89 44.2h.01M90 44.2h.01M91 44.2h.01M92 44.2h.01M93 44.2h.01M94 44.2h.01M95 44.2h.01M96 44.2h.01M97 44.2h.01M98 44.2h.01M99 44.2h.01M100 44.2h.01M101 44.2h.01M102 44.2h.01M103 44.2h.01M104 44.2h.01M105 44.2h.01M106 44.2h.01M107 44.2h.01M108 44.2h.01M109 44.2h.01M111 44.2h.01M112 44.2h.01M113 44.2h.01M114 44.2h.01M115 44.2h.01M116 44.2h.01M117 44.2h.01M118 44.2h.01M119 44.2h.01M120 44.2h.01M123 44.2h.01M126 44.2h.01M127 44.2h.01M128 44.2h.01M129 44.2h.01M130 44.2h.01M131 44.2h.01M132 44.2h.01M133 44.2h.01M134 44.2h.01M135 44.2h.01M136 44.2h.01M137 44.2h.01M138 44.2h.01M139 44.2h.01M140 44.2h.01M141 44.2h.01M142 44.2h.01M143 44.2h.01M144 44.2h.01M145 44.2h.01M146 44.2h.01M147 44.2h.01M148 44.2h.01M149 44.2h.01M150 44.2h.01M151 44.2h.01M152 44.2h.01M153 44.2h.01M154 44.2h.01M155 44.2h.01M156 44.2h.01M157 44.2h.01M158 44.2h.01M159 44.2h.01M160 44.2h.01M161 44.2h.01M162 44.2h.01M163 44.2h.01M164 44.2h.01M16.5 45h.01M17.5 45h.01M18.5 45h.01M19.5 45h.01M20.5 45h.01M21.5 45h.01M35.5 45h.01M76.5 45h.01M77.5 45h.01M78.5 45h.01M79.5 45h.01M80.5 45h.01M81.5 45h.01M82.5 45h.01M83.5 45h.01M84.5 45h.01M85.5 45h.01M86.5 45h.01M87.5 45h.01M88.5 45h.01M89.5 45h.01M90.5 45h.01M91.5 45h.01M92.5 45h.01M93.5 45h.01M94.5 45h.01M95.5 45h.01M96.5 45h.01M97.5 45h.01M98.5 45h.01M99.5 45h.01M100.5 45h.01M101.5 45h.01M102.5 45h.01M103.5 45h.01M104.5 45h.01M105.5 45h.01M106.5 45h.01M107.5 45h.01M108.5 45h.01M109.5 45h.01M111.5 45h.01M112.5 45h.01M113.5 45h.01M114.5 45h.01M115.5 45h.01M116.5 45h.01M117.5 45h.01M118.5 45h.01M119.5 45h.01M121.5 45h.01M122.5 45h.01M123.5 45h.01M131.5 45h.01M132.5 45h.01M133.5 45h.01M134.5 45h.01M135.5 45h.01M136.5 45h.01M137.5 45h.01M138.5 45h.01M139.5 45h.01M140.5 45h.01M141.5 45h.01M142.5 45h.01M143.5 45h.01M144.5 45h.01M145.5 45h.01M146.5 45h.01M147.5 45h.01M148.5 45h.01M149.5 45h.01M150.5 45h.01M151.5 45h.01M152.5 45h.01M153.5 45h.01M154.5 45h.01M155.5 45h.01M156.5 45h.01M157.5 45h.01M158.5 45h.01M159.5 45h.01M160.5 45h.01M161.5 45h.01M162.5 45h.01M163.5 45h.01M165.5 45h.01M17 45.9h.01M18 45.9h.01M19 45.9h.01M20 45.9h.01M21 45.9h.01M22 45.9h.01M32 45.9h.01M33 45.9h.01M34 45.9h.01M76 45.9h.01M77 45.9h.01M78 45.9h.01M79 45.9h.01M80 45.9h.01M81 45.9h.01M82 45.9h.01M83 45.9h.01M84 45.9h.01M85 45.9h.01M86 45.9h.01M87 45.9h.01M88 45.9h.01M89 45.9h.01M90 45.9h.01M91 45.9h.01M92 45.9h.01M93 45.9h.01M94 45.9h.01M95 45.9h.01M96 45.9h.01M97 45.9h.01M98 45.9h.01M99 45.9h.01M100 45.9h.01M101 45.9h.01M102 45.9h.01M103 45.9h.01M104 45.9h.01M105 45.9h.01M106 45.9h.01M107 45.9h.01M108 45.9h.01M109 45.9h.01M112 45.9h.01M113 45.9h.01M114 45.9h.01M115 45.9h.01M116 45.9h.01M117 45.9h.01M118 45.9h.01M119 45.9h.01M120 45.9h.01M121 45.9h.01M122 45.9h.01M123 45.9h.01M124 45.9h.01M125 45.9h.01M132 45.9h.01M133 45.9h.01M134 45.9h.01M135 45.9h.01M136 45.9h.01M137 45.9h.01M138 45.9h.01M139 45.9h.01M140 45.9h.01M141 45.9h.01M142 45.9h.01M143 45.9h.01M144 45.9h.01M145 45.9h.01M146 45.9h.01M147 45.9h.01M148 45.9h.01M149 45.9h.01M150 45.9h.01M151 45.9h.01M152 45.9h.01M153 45.9h.01M154 45.9h.01M155 45.9h.01M156 45.9h.01M157 45.9h.01M158 45.9h.01M159 45.9h.01M160 45.9h.01M161 45.9h.01M162 45.9h.01M17.5 46.8h.01M18.5 46.8h.01M19.5 46.8h.01M20.5 46.8h.01M21.5 46.8h.01M22.5 46.8h.01M34.5 46.8h.01M35.5 46.8h.01M75.5 46.8h.01M76.5 46.8h.01M77.5 46.8h.01M78.5 46.8h.01M79.5 46.8h.01M80.5 46.8h.01M81.5 46.8h.01M82.5 46.8h.01M83.5 46.8h.01M84.5 46.8h.01M85.5 46.8h.01M86.5 46.8h.01M87.5 46.8h.01M88.5 46.8h.01M89.5 46.8h.01M90.5 46.8h.01M91.5 46.8h.01M92.5 46.8h.01M93.5 46.8h.01M94.5 46.8h.01M95.5 46.8h.01M96.5 46.8h.01M97.5 46.8h.01M98.5 46.8h.01M99.5 46.8h.01M100.5 46.8h.01M101.5 46.8h.01M102.5 46.8h.01M103.5 46.8h.01M104.5 46.8h.01M105.5 46.8h.01M106.5 46.8h.01M107.5 46.8h.01M108.5 46.8h.01M109.5 46.8h.01M110.5 46.8h.01M112.5 46.8h.01M113.5 46.8h.01M114.5 46.8h.01M115.5 46.8h.01M116.5 46.8h.01M117.5 46.8h.01M118.5 46.8h.01M119.5 46.8h.01M120.5 46.8h.01M121.5 46.8h.01M122.5 46.8h.01M123.5 46.8h.01M124.5 46.8h.01M132.5 46.8h.01M133.5 46.8h.01M134.5 46.8h.01M135.5 46.8h.01M136.5 46.8h.01M137.5 46.8h.01M138.5 46.8h.01M139.5 46.8h.01M140.5 46.8h.01M141.5 46.8h.01M142.5 46.8h.01M143.5 46.8h.01M147.5 46.8h.01M148.5 46.8h.01M149.5 46.8h.01M150.5 46.8h.01M151.5 46.8h.01M152.5 46.8h.01M153.5 46.8h.01M154.5 46.8h.01M155.5 46.8h.01M156.5 46.8h.01M158.5 46.8h.01M159.5 46.8h.01M18 47.6h.01M19 47.6h.01M20 47.6h.01M21 47.6h.01M22 47.6h.01M28 47.6h.01M29 47.6h.01M36 47.6h.01M37 47.6h.01M76 47.6h.01M77 47.6h.01M78 47.6h.01M79 47.6h.01M80 47.6h.01M81 47.6h.01M82 47.6h.01M83 47.6h.01M84 47.6h.01M85 47.6h.01M86 47.6h.01M87 47.6h.01M88 47.6h.01M89 47.6h.01M90 47.6h.01M91 47.6h.01M92 47.6h.01M93 47.6h.01M94 47.6h.01M95 47.6h.01M96 47.6h.01M97 47.6h.01M98 47.6h.01M99 47.6h.01M100 47.6h.01M101 47.6h.01M102 47.6h.01M103 47.6h.01M104 47.6h.01M105 47.6h.01M106 47.6h.01M107 47.6h.01M108 47.6h.01M109 47.6h.01M110 47.6h.01M113 47.6h.01M114 47.6h.01M115 47.6h.01M116 47.6h.01M117 47.6h.01M118 47.6h.01M119 47.6h.01M120 47.6h.01M121 47.6h.01M122 47.6h.01M123 47.6h.01M124 47.6h.01M135 47.6h.01M136 47.6h.01M137 47.6h.01M138 47.6h.01M139 47.6h.01M140 47.6h.01M141 47.6h.01M142 47.6h.01M143 47.6h.01M148 47.6h.01M149 47.6h.01M150 47.6h.01M151 47.6h.01M152 47.6h.01M153 47.6h.01M154 47.6h.01M155 47.6h.01M156 47.6h.01M18.5 48.5h.01M19.5 48.5h.01M20.5 48.5h.01M21.5 48.5h.01M22.5 48.5h.01M27.5 48.5h.01M28.5 48.5h.01M39.5 48.5h.01M40.5 48.5h.01M76.5 48.5h.01M77.5 48.5h.01M78.5 48.5h.01M79.5 48.5h.01M80.5 48.5h.01M81.5 48.5h.01M82.5 48.5h.01M83.5 48.5h.01M84.5 48.5h.01M85.5 48.5h.01M86.5 48.5h.01M87.5 48.5h.01M88.5 48.5h.01M89.5 48.5h.01M90.5 48.5h.01M91.5 48.5h.01M92.5 48.5h.01M93.5 48.5h.01M94.5 48.5h.01M95.5 48.5h.01M96.5 48.5h.01M97.5 48.5h.01M98.5 48.5h.01M99.5 48.5h.01M100.5 48.5h.01M101.5 48.5h.01M102.5 48.5h.01M103.5 48.5h.01M104.5 48.5h.01M105.5 48.5h.01M106.5 48.5h.01M107.5 48.5h.01M108.5 48.5h.01M109.5 48.5h.01M110.5 48.5h.01M113.5 48.5h.01M114.5 48.5h.01M115.5 48.5h.01M116.5 48.5h.01M117.5 48.5h.01M118.5 48.5h.01M119.5 48.5h.01M120.5 48.5h.01M121.5 48.5h.01M122.5 48.5h.01M123.5 48.5h.01M134.5 48.5h.01M135.5 48.5h.01M136.5 48.5h.01M137.5 48.5h.01M138.5 48.5h.01M139.5 48.5h.01M140.5 48.5h.01M141.5 48.5h.01M148.5 48.5h.01M149.5 48.5h.01M150.5 48.5h.01M151.5 48.5h.01M152.5 48.5h.01M153.5 48.5h.01M154.5 48.5h.01M155.5 48.5h.01M158.5 48.5h.01M20 49.4h.01M21 49.4h.01M22 49.4h.01M23 49.4h.01M24 49.4h.01M25 49.4h.01M26 49.4h.01M27 49.4h.01M28 49.4h.01M36 49.4h.01M76 49.4h.01M77 49.4h.01M78 49.4h.01M79 49.4h.01M80 49.4h.01M81 49.4h.01M82 49.4h.01M83 49.4h.01M84 49.4h.01M85 49.4h.01M86 49.4h.01M87 49.4h.01M88 49.4h.01M89 49.4h.01M90 49.4h.01M91 49.4h.01M92 49.4h.01M93 49.4h.01M94 49.4h.01M95 49.4h.01M96 49.4h.01M97 49.4h.01M98 49.4h.01M99 49.4h.01M100 49.4h.01M101 49.4h.01M102 49.4h.01M103 49.4h.01M104 49.4h.01M105 49.4h.01M106 49.4h.01M107 49.4h.01M108 49.4h.01M109 49.4h.01M110 49.4h.01M111 49.4h.01M114 49.4h.01M115 49.4h.01M116 49.4h.01M117 49.4h.01M118 49.4h.01M119 49.4h.01M120 49.4h.01M121 49.4h.01M122 49.4h.01M123 49.4h.01M135 49.4h.01M136 49.4h.01M137 49.4h.01M138 49.4h.01M139 49.4h.01M140 49.4h.01M141 49.4h.01M149 49.4h.01M150 49.4h.01M151 49.4h.01M152 49.4h.01M153 49.4h.01M154 49.4h.01M155 49.4h.01M156 49.4h.01M166 49.4h.01M21.5 50.2h.01M22.5 50.2h.01M23.5 50.2h.01M24.5 50.2h.01M25.5 50.2h.01M26.5 50.2h.01M27.5 50.2h.01M28.5 50.2h.01M76.5 50.2h.01M77.5 50.2h.01M78.5 50.2h.01M79.5 50.2h.01M80.5 50.2h.01M81.5 50.2h.01M82.5 50.2h.01M83.5 50.2h.01M84.5 50.2h.01M85.5 50.2h.01M86.5 50.2h.01M87.5 50.2h.01M88.5 50.2h.01M89.5 50.2h.01M90.5 50.2h.01M91.5 50.2h.01M92.5 50.2h.01M93.5 50.2h.01M94.5 50.2h.01M95.5 50.2h.01M96.5 50.2h.01M97.5 50.2h.01M98.5 50.2h.01M99.5 50.2h.01M100.5 50.2h.01M101.5 50.2h.01M102.5 50.2h.01M103.5 50.2h.01M104.5 50.2h.01M105.5 50.2h.01M106.5 50.2h.01M107.5 50.2h.01M108.5 50.2h.01M109.5 50.2h.01M110.5 50.2h.01M111.5 50.2h.01M114.5 50.2h.01M115.5 50.2h.01M116.5 50.2h.01M117.5 50.2h.01M118.5 50.2h.01M119.5 50.2h.01M120.5 50.2h.01M135.5 50.2h.01M136.5 50.2h.01M137.5 50.2h.01M138.5 50.2h.01M139.5 50.2h.01M148.5 50.2h.01M149.5 50.2h.01M150.5 50.2h.01M151.5 50.2h.01M152.5 50.2h.01M153.5 50.2h.01M154.5 50.2h.01M155.5 50.2h.01M156.5 50.2h.01M165.5 50.2h.01M166.5 50.2h.01M26 51.1h.01M27 51.1h.01M28 51.1h.01M29 51.1h.01M30 51.1h.01M31 51.1h.01M76 51.1h.01M77 51.1h.01M78 51.1h.01M79 51.1h.01M80 51.1h.01M81 51.1h.01M82 51.1h.01M83 51.1h.01M84 51.1h.01M85 51.1h.01M86 51.1h.01M87 51.1h.01M88 51.1h.01M89 51.1h.01M90 51.1h.01M91 51.1h.01M92 51.1h.01M93 51.1h.01M94 51.1h.01M95 51.1h.01M96 51.1h.01M97 51.1h.01M98 51.1h.01M99 51.1h.01M100 51.1h.01M101 51.1h.01M102 51.1h.01M103 51.1h.01M104 51.1h.01M105 51.1h.01M106 51.1h.01M107 51.1h.01M108 51.1h.01M109 51.1h.01M110 51.1h.01M111 51.1h.01M112 51.1h.01M115 51.1h.01M116 51.1h.01M117 51.1h.01M118 51.1h.01M119 51.1h.01M120 51.1h.01M135 51.1h.01M136 51.1h.01M137 51.1h.01M138 51.1h.01M151 51.1h.01M152 51.1h.01M153 51.1h.01M154 51.1h.01M155 51.1h.01M156 51.1h.01M157 51.1h.01M165 51.1h.01M166 51.1h.01M26.5 52h.01M27.5 52h.01M28.5 52h.01M29.5 52h.01M30.5 52h.01M31.5 52h.01M75.5 52h.01M76.5 52h.01M77.5 52h.01M78.5 52h.01M79.5 52h.01M80.5 52h.01M81.5 52h.01M82.5 52h.01M83.5 52h.01M84.5 52h.01M85.5 52h.01M86.5 52h.01M87.5 52h.01M88.5 52h.01M89.5 52h.01M90.5 52h.01M91.5 52h.01M92.5 52h.01M93.5 52h.01M94.5 52h.01M95.5 52h.01M96.5 52h.01M97.5 52h.01M98.5 52h.01M99.5 52h.01M100.5 52h.01M101.5 52h.01M102.5 52h.01M103.5 52h.01M104.5 52h.01M105.5 52h.01M106.5 52h.01M107.5 52h.01M108.5 52h.01M109.5 52h.01M110.5 52h.01M111.5 52h.01M112.5 52h.01M113.5 52h.01M115.5 52h.01M116.5 52h.01M117.5 52h.01M135.5 52h.01M136.5 52h.01M137.5 52h.01M138.5 52h.01M151.5 52h.01M152.5 52h.01M153.5 52h.01M154.5 52h.01M155.5 52h.01M156.5 52h.01M157.5 52h.01M165.5 52h.01M166.5 52h.01M30 52.8h.01M31 52.8h.01M76 52.8h.01M77 52.8h.01M78 52.8h.01M79 52.8h.01M80 52.8h.01M81 52.8h.01M82 52.8h.01M83 52.8h.01M84 52.8h.01M85 52.8h.01M86 52.8h.01M87 52.8h.01M88 52.8h.01M89 52.8h.01M90 52.8h.01M91 52.8h.01M92 52.8h.01M93 52.8h.01M94 52.8h.01M95 52.8h.01M96 52.8h.01M97 52.8h.01M98 52.8h.01M99 52.8h.01M100 52.8h.01M101 52.8h.01M102 52.8h.01M103 52.8h.01M104 52.8h.01M105 52.8h.01M106 52.8h.01M107 52.8h.01M108 52.8h.01M109 52.8h.01M110 52.8h.01M111 52.8h.01M112 52.8h.01M113 52.8h.01M114 52.8h.01M115 52.8h.01M136 52.8h.01M137 52.8h.01M138 52.8h.01M151 52.8h.01M153 52.8h.01M154 52.8h.01M155 52.8h.01M156 52.8h.01M157 52.8h.01M158 52.8h.01M30.5 53.7h.01M31.5 53.7h.01M39.5 53.7h.01M40.5 53.7h.01M76.5 53.7h.01M77.5 53.7h.01M78.5 53.7h.01M79.5 53.7h.01M80.5 53.7h.01M81.5 53.7h.01M82.5 53.7h.01M83.5 53.7h.01M84.5 53.7h.01M85.5 53.7h.01M86.5 53.7h.01M87.5 53.7h.01M88.5 53.7h.01M89.5 53.7h.01M90.5 53.7h.01M91.5 53.7h.01M92.5 53.7h.01M93.5 53.7h.01M94.5 53.7h.01M95.5 53.7h.01M96.5 53.7h.01M97.5 53.7h.01M98.5 53.7h.01M99.5 53.7h.01M100.5 53.7h.01M101.5 53.7h.01M102.5 53.7h.01M103.5 53.7h.01M104.5 53.7h.01M105.5 53.7h.01M106.5 53.7h.01M107.5 53.7h.01M108.5 53.7h.01M109.5 53.7h.01M110.5 53.7h.01M111.5 53.7h.01M112.5 53.7h.01M113.5 53.7h.01M114.5 53.7h.01M119.5 53.7h.01M136.5 53.7h.01M137.5 53.7h.01M138.5 53.7h.01M151.5 53.7h.01M154.5 53.7h.01M155.5 53.7h.01M156.5 53.7h.01M157.5 53.7h.01M166.5 53.7h.01M168.5 53.7h.01M31 54.6h.01M37 54.6h.01M38 54.6h.01M39 54.6h.01M40 54.6h.01M41 54.6h.01M42 54.6h.01M43 54.6h.01M45 54.6h.01M46 54.6h.01M77 54.6h.01M78 54.6h.01M79 54.6h.01M80 54.6h.01M81 54.6h.01M82 54.6h.01M83 54.6h.01M84 54.6h.01M85 54.6h.01M86 54.6h.01M87 54.6h.01M88 54.6h.01M89 54.6h.01M90 54.6h.01M91 54.6h.01M92 54.6h.01M93 54.6h.01M94 54.6h.01M95 54.6h.01M96 54.6h.01M97 54.6h.01M98 54.6h.01M99 54.6h.01M100 54.6h.01M101 54.6h.01M102 54.6h.01M103 54.6h.01M104 54.6h.01M105 54.6h.01M106 54.6h.01M107 54.6h.01M108 54.6h.01M109 54.6h.01M110 54.6h.01M111 54.6h.01M112 54.6h.01M113 54.6h.01M114 54.6h.01M115 54.6h.01M116 54.6h.01M117 54.6h.01M118 54.6h.01M119 54.6h.01M137 54.6h.01M138 54.6h.01M151 54.6h.01M156 54.6h.01M167 54.6h.01M32.5 55.4h.01M33.5 55.4h.01M35.5 55.4h.01M36.5 55.4h.01M37.5 55.4h.01M38.5 55.4h.01M39.5 55.4h.01M40.5 55.4h.01M41.5 55.4h.01M42.5 55.4h.01M43.5 55.4h.01M44.5 55.4h.01M45.5 55.4h.01M46.5 55.4h.01M78.5 55.4h.01M79.5 55.4h.01M80.5 55.4h.01M81.5 55.4h.01M82.5 55.4h.01M83.5 55.4h.01M84.5 55.4h.01M85.5 55.4h.01M86.5 55.4h.01M87.5 55.4h.01M88.5 55.4h.01M89.5 55.4h.01M90.5 55.4h.01M91.5 55.4h.01M92.5 55.4h.01M93.5 55.4h.01M94.5 55.4h.01M95.5 55.4h.01M96.5 55.4h.01M97.5 55.4h.01M98.5 55.4h.01M99.5 55.4h.01M100.5 55.4h.01M101.5 55.4h.01M102.5 55.4h.01M103.5 55.4h.01M104.5 55.4h.01M105.5 55.4h.01M106.5 55.4h.01M107.5 55.4h.01M108.5 55.4h.01M109.5 55.4h.01M110.5 55.4h.01M111.5 55.4h.01M112.5 55.4h.01M113.5 55.4h.01M114.5 55.4h.01M115.5 55.4h.01M116.5 55.4h.01M117.5 55.4h.01M118.5 55.4h.01M137.5 55.4h.01M139.5 55.4h.01M151.5 55.4h.01M155.5 55.4h.01M163.5 55.4h.01M168.5 55.4h.01" fill="none" stroke="#5d9bcc" stroke-width="0.62" stroke-linecap="round"/></svg>